Mertz Light-bold2.ufo
<glyph name="exclam" format="1">
  <advance width="508"/>
  <unicode hex="0021"/>
  <outline>
    <contour>
      <point x="209" y="396" type="line"/>
      <point x="291" y="396" type="line"/>
      <point x="372" y="1241" type="line"/>
      <point x="128" y="1241" type="line"/>
    </contour>
    <component base="period" xOffset="-10"/>
  </outline>
</glyph>
<glyph name="quotedbl" format="1">
  <advance width="683"/>
  <unicode hex="0022"/>
  <outline>
    <contour>
      <point x="453" y="843" type="line"/>
      <point x="514" y="843" type="line"/>
      <point x="594" y="1431" type="line"/>
      <point x="373" y="1431" type="line"/>
    </contour>
    <contour>
      <point x="173" y="843" type="line"/>
      <point x="234" y="843" type="line"/>
      <point x="314" y="1431" type="line"/>
      <point x="93" y="1431" type="line"/>
    </contour>
  </outline>
</glyph>
<glyph name="numbersign" format="1">
  <advance width="1160"/>
  <unicode hex="0023"/>
  <outline>
    <contour>
      <point x="125" y="0" type="line"/>
      <point x="275" y="0" type="line"/>
      <point x="612" y="1241" type="line"/>
      <point x="460" y="1241" type="line"/>
    </contour>
    <contour>
      <point x="100" y="401" type="line"/>
      <point x="1023" y="401" type="line"/>
      <point x="1023" y="514" type="line"/>
      <point x="100" y="514" type="line"/>
    </contour>
    <contour>
      <point x="150" y="710" type="line"/>
      <point x="1073" y="710" type="line"/>
      <point x="1073" y="824" type="line"/>
      <point x="150" y="824" type="line"/>
    </contour>
    <contour>
      <point x="554" y="0" type="line"/>
      <point x="704" y="0" type="line"/>
      <point x="1042" y="1241" type="line"/>
      <point x="889" y="1241" type="line"/>
    </contour>
  </outline>
</glyph>
<glyph name="dollar" format="1">
  <advance width="956"/>
  <unicode hex="0024"/>
  <outline>
    <contour>
      <point x="301" y="-179" type="line"/>
      <point x="402" y="-179" type="line"/>
      <point x="690" y="1389" type="line"/>
      <point x="588" y="1389" type="line"/>
    </contour>
    <contour>
      <point x="539" y="-33" type="curve" smooth="yes"/>
      <point x="729" y="-33"/>
      <point x="901" y="75"/>
      <point x="901" y="306" type="curve" smooth="yes"/>
      <point x="901" y="431"/>
      <point x="851" y="541"/>
      <point x="667" y="649" type="curve" smooth="yes"/>
      <point x="416" y="796" type="line" smooth="yes"/>
      <point x="344" y="840"/>
      <point x="310" y="897"/>
      <point x="310" y="947" type="curve" smooth="yes"/>
      <point x="310" y="1012"/>
      <point x="358" y="1088"/>
      <point x="492" y="1088" type="curve" smooth="yes"/>
      <point x="610" y="1088"/>
      <point x="809" y="1023"/>
      <point x="842" y="1005" type="curve"/>
      <point x="842" y="1198" type="line" smooth="yes"/>
      <point x="821" y="1212"/>
      <point x="663" y="1276"/>
      <point x="480" y="1276" type="curve" smooth="yes"/>
      <point x="229" y="1276"/>
      <point x="76" y="1120"/>
      <point x="76" y="942" type="curve" smooth="yes"/>
      <point x="76" y="833"/>
      <point x="137" y="721"/>
      <point x="270" y="640" type="curve" smooth="yes"/>
      <point x="551" y="468" type="line" smooth="yes"/>
      <point x="653" y="406"/>
      <point x="672" y="352"/>
      <point x="672" y="301" type="curve" smooth="yes"/>
      <point x="672" y="219"/>
      <point x="620" y="151"/>
      <point x="509" y="151" type="curve" smooth="yes"/>
      <point x="367" y="151"/>
      <point x="141" y="242"/>
      <point x="105" y="265" type="curve"/>
      <point x="105" y="70" type="line"/>
      <point x="125" y="58"/>
      <point x="307" y="-33"/>
    </contour>
  </outline>
</glyph>
<glyph name="percent" format="1">
  <advance width="1510"/>
  <unicode hex="0025"/>
  <outline>
    <contour>
      <point x="295" y="0" type="line"/>
      <point x="492" y="0" type="line"/>
      <point x="1210" y="1241" type="line"/>
      <point x="1012" y="1241" type="line"/>
    </contour>
    <component base="o" xOffset="22" yOffset="713" xScale="0.60" yScale="0.60"/>
    <component base="o" xOffset="816" yOffset="13" xScale="0.60" yScale="0.60"/>
  </outline>
</glyph>
<glyph name="ampersand" format="1">
  <advance width="1259"/>
  <unicode hex="0026"/>
  <outline>
    <contour>
      <point x="521" y="-33" type="curve" smooth="yes"/>
      <point x="858" y="-33"/>
      <point x="1122" y="227"/>
      <point x="1202" y="422" type="curve"/>
      <point x="1061" y="526" type="line"/>
      <point x="963" y="327"/>
      <point x="745" y="149"/>
      <point x="543" y="149" type="curve" smooth="yes"/>
      <point x="365" y="149"/>
      <point x="312" y="262"/>
      <point x="312" y="350" type="curve" smooth="yes"/>
      <point x="312" y="437"/>
      <point x="340" y="544"/>
      <point x="530" y="637" type="curve" smooth="yes"/>
      <point x="784" y="764"/>
      <point x="857" y="881"/>
      <point x="849" y="1029" type="curve" smooth="yes"/>
      <point x="843" y="1155"/>
      <point x="747" y="1272"/>
      <point x="514" y="1272" type="curve" smooth="yes"/>
      <point x="350" y="1272"/>
      <point x="146" y="1201"/>
      <point x="146" y="1004" type="curve" smooth="yes"/>
      <point x="146" y="923"/>
      <point x="180" y="820"/>
      <point x="319" y="688" type="curve" smooth="yes"/>
      <point x="1073" y="-37" type="line"/>
      <point x="1207" y="88" type="line"/>
      <point x="450" y="814" type="line"/>
      <point x="367" y="897"/>
      <point x="341" y="959"/>
      <point x="341" y="997" type="curve" smooth="yes"/>
      <point x="341" y="1105"/>
      <point x="450" y="1125"/>
      <point x="526" y="1125" type="curve" smooth="yes"/>
      <point x="611" y="1125"/>
      <point x="664" y="1072"/>
      <point x="664" y="1010" type="curve" smooth="yes"/>
      <point x="664" y="945"/>
      <point x="634" y="880"/>
      <point x="466" y="804" type="curve" smooth="yes"/>
      <point x="202" y="687"/>
      <point x="96" y="516"/>
      <point x="96" y="324" type="curve" smooth="yes"/>
      <point x="96" y="159"/>
      <point x="242" y="-33"/>
    </contour>
  </outline>
</glyph>
<glyph name="parenleft" format="1">
  <advance width="538"/>
  <unicode hex="0028"/>
  <outline>
    <contour>
      <point x="176" y="-65" type="line"/>
      <point x="82" y="137"/>
      <point x="35" y="387"/>
      <point x="35" y="646" type="curve" smooth="yes"/>
      <point x="35" y="904"/>
      <point x="81" y="1152"/>
      <point x="174" y="1354" type="curve"/>
      <point x="409" y="1354" type="line"/>
      <point x="315" y="1137"/>
      <point x="270" y="889"/>
      <point x="270" y="646" type="curve" smooth="yes"/>
      <point x="270" y="402"/>
      <point x="315" y="152"/>
      <point x="410" y="-65" type="curve"/>
    </contour>
  </outline>
</glyph>
<glyph name="parenright" format="1">
  <advance width="538"/>
  <unicode hex="0029"/>
  <outline>
    <contour>
      <point x="31" y="-65" type="line"/>
      <point x="125" y="152"/>
      <point x="171" y="400"/>
      <point x="171" y="643" type="curve" smooth="yes"/>
      <point x="171" y="887"/>
      <point x="125" y="1137"/>
      <point x="30" y="1354" type="curve"/>
      <point x="264" y="1354" type="line"/>
      <point x="358" y="1152"/>
      <point x="405" y="902"/>
      <point x="405" y="643" type="curve" smooth="yes"/>
      <point x="405" y="386"/>
      <point x="359" y="137"/>
      <point x="266" y="-65" type="curve"/>
    </contour>
  </outline>
</glyph>
<glyph name="asterisk" format="1">
  <advance width="1208"/>
  <unicode hex="002A"/>
  <outline>
    <contour>
      <point x="318" y="472" type="line"/>
      <point x="531" y="759" type="line"/>
      <point x="745" y="472" type="line"/>
      <point x="856" y="569" type="line"/>
      <point x="617" y="821" type="line"/>
      <point x="936" y="930" type="line"/>
      <point x="881" y="1061" type="line"/>
      <point x="583" y="917" type="line"/>
      <point x="609" y="1260" type="line"/>
      <point x="453" y="1260" type="line"/>
      <point x="480" y="917" type="line"/>
      <point x="182" y="1061" type="line"/>
      <point x="127" y="930" type="line"/>
      <point x="446" y="821" type="line"/>
      <point x="207" y="569" type="line"/>
    </contour>
  </outline>
</glyph>
<glyph name="plus" format="1">
  <advance width="948"/>
  <unicode hex="002B"/>
  <outline>
    <contour>
      <point x="411" y="260" type="line"/>
      <point x="570" y="260" type="line"/>
      <point x="570" y="498" type="line"/>
      <point x="808" y="498" type="line"/>
      <point x="808" y="656" type="line"/>
      <point x="570" y="656" type="line"/>
      <point x="570" y="895" type="line"/>
      <point x="411" y="895" type="line"/>
      <point x="411" y="656" type="line"/>
      <point x="174" y="656" type="line"/>
      <point x="174" y="498" type="line"/>
      <point x="411" y="498" type="line"/>
    </contour>
  </outline>
</glyph>
<glyph name="comma" format="1">
  <advance width="514"/>
  <unicode hex="002C"/>
  <outline>
    <contour>
      <point x="119" y="-183" type="curve"/>
      <point x="198" y="-183" type="line"/>
      <point x="346" y="-58"/>
      <point x="401" y="41"/>
      <point x="401" y="121" type="curve" smooth="yes"/>
      <point x="401" y="188"/>
      <point x="351" y="259"/>
      <point x="262" y="259" type="curve" smooth="yes"/>
      <point x="172" y="259"/>
      <point x="121" y="189"/>
      <point x="121" y="121" type="curve" smooth="yes"/>
      <point x="121" y="61"/>
      <point x="160" y="2"/>
      <point x="228" y="-12" type="curve"/>
      <point x="209" y="-71"/>
      <point x="163" y="-126"/>
    </contour>
  </outline>
</glyph>
<glyph name="hyphen" format="1">
  <advance width="951"/>
  <unicode hex="002D"/>
  <outline>
    <contour>
      <point x="175" y="483" type="line"/>
      <point x="810" y="483" type="line"/>
      <point x="810" y="676" type="line"/>
      <point x="175" y="676" type="line"/>
    </contour>
  </outline>
</glyph>
<glyph name="period" format="1">
  <advance width="519"/>
  <unicode hex="002E"/>
  <outline>
    <contour>
      <point x="260" y="-16" type="curve" smooth="yes"/>
      <point x="349" y="-16"/>
      <point x="400" y="52"/>
      <point x="400" y="121" type="curve" smooth="yes"/>
      <point x="400" y="188"/>
      <point x="349" y="259"/>
      <point x="260" y="259" type="curve" smooth="yes"/>
      <point x="170" y="259"/>
      <point x="119" y="189"/>
      <point x="119" y="121" type="curve" smooth="yes"/>
      <point x="119" y="52"/>
      <point x="171" y="-16"/>
    </contour>
  </outline>
</glyph>
<glyph name="zero" format="1">
  <advance width="1239"/>
  <unicode hex="0030"/>
  <outline>
    <contour>
      <point x="620" y="171" type="curve" smooth="yes"/>
      <point x="432" y="171"/>
      <point x="304" y="271"/>
      <point x="304" y="625" type="curve" smooth="yes"/>
      <point x="304" y="976"/>
      <point x="432" y="1071"/>
      <point x="620" y="1071" type="curve" smooth="yes"/>
      <point x="809" y="1071"/>
      <point x="936" y="975"/>
      <point x="936" y="625" type="curve" smooth="yes"/>
      <point x="936" y="271"/>
      <point x="809" y="171"/>
    </contour>
    <contour>
      <point x="620" y="-33" type="curve" smooth="yes"/>
      <point x="993" y="-33"/>
      <point x="1171" y="196"/>
      <point x="1171" y="622" type="curve" smooth="yes"/>
      <point x="1171" y="1069"/>
      <point x="985" y="1275"/>
      <point x="620" y="1275" type="curve" smooth="yes"/>
      <point x="255" y="1275"/>
      <point x="68" y="1069"/>
      <point x="68" y="622" type="curve" smooth="yes"/>
      <point x="68" y="196"/>
      <point x="247" y="-33"/>
    </contour>
  </outline>
</glyph>
<glyph name="one" format="1">
  <advance width="689"/>
  <unicode hex="0031"/>
  <outline>
    <contour>
      <point x="298" y="0" type="line"/>
      <point x="541" y="0" type="line"/>
      <point x="541" y="1279" type="line"/>
      <point x="541" y="1279"/>
      <point x="167" y="1075"/>
      <point x="49" y="1031" type="curve"/>
      <point x="49" y="818" type="line"/>
      <point x="152" y="850"/>
      <point x="227" y="878"/>
      <point x="298" y="918" type="curve"/>
    </contour>
  </outline>
</glyph>
<glyph name="two" format="1">
  <advance width="981"/>
  <unicode hex="0032"/>
  <outline>
    <contour>
      <point x="36" y="0" type="line"/>
      <point x="858" y="0" type="line"/>
      <point x="858" y="200" type="line"/>
      <point x="451" y="200" type="line"/>
      <point x="672" y="490" type="line" smooth="yes"/>
      <point x="783" y="635"/>
      <point x="860" y="768"/>
      <point x="860" y="906" type="curve" smooth="yes"/>
      <point x="860" y="1120"/>
      <point x="718" y="1275"/>
      <point x="480" y="1275" type="curve" smooth="yes"/>
      <point x="310" y="1275"/>
      <point x="130" y="1165"/>
      <point x="107" y="1146" type="curve"/>
      <point x="186" y="971" type="line"/>
      <point x="204" y="987"/>
      <point x="345" y="1071"/>
      <point x="456" y="1071" type="curve" smooth="yes"/>
      <point x="550" y="1071"/>
      <point x="622" y="1015"/>
      <point x="622" y="910" type="curve" smooth="yes"/>
      <point x="622" y="824"/>
      <point x="576" y="741"/>
      <point x="503" y="642" type="curve"/>
    </contour>
  </outline>
</glyph>
<glyph name="three" format="1">
  <advance width="970"/>
  <unicode hex="0033"/>
  <outline>
    <contour>
      <point x="473" y="-35" type="curve" smooth="yes"/>
      <point x="730" y="-35"/>
      <point x="884" y="114"/>
      <point x="884" y="308" type="curve" smooth="yes"/>
      <point x="884" y="489"/>
      <point x="777" y="598"/>
      <point x="627" y="659" type="curve"/>
      <point x="756" y="707"/>
      <point x="851" y="807"/>
      <point x="851" y="940" type="curve" smooth="yes"/>
      <point x="851" y="1147"/>
      <point x="687" y="1276"/>
      <point x="476" y="1276" type="curve" smooth="yes"/>
      <point x="353" y="1276"/>
      <point x="191" y="1240"/>
      <point x="94" y="1177" type="curve"/>
      <point x="154" y="1004" type="line"/>
      <point x="258" y="1055"/>
      <point x="362" y="1078"/>
      <point x="437" y="1078" type="curve" smooth="yes"/>
      <point x="558" y="1078"/>
      <point x="626" y="1013"/>
      <point x="626" y="923" type="curve" smooth="yes"/>
      <point x="626" y="815"/>
      <point x="504" y="734"/>
      <point x="296" y="685" type="curve"/>
      <point x="296" y="598" type="line"/>
      <point x="529" y="538"/>
      <point x="644" y="470"/>
      <point x="644" y="337" type="curve" smooth="yes"/>
      <point x="644" y="227"/>
      <point x="552" y="163"/>
      <point x="443" y="163" type="curve" smooth="yes"/>
      <point x="345" y="163"/>
      <point x="243" y="186"/>
      <point x="152" y="232" type="curve"/>
      <point x="103" y="49" type="line"/>
      <point x="133" y="31"/>
      <point x="295" y="-35"/>
    </contour>
  </outline>
</glyph>
<glyph name="four" format="1">
  <advance width="1156"/>
  <unicode hex="0034"/>
  <outline>
    <contour>
      <point x="647" y="0" type="line"/>
      <point x="891" y="0" type="line"/>
      <point x="891" y="243" type="line"/>
      <point x="1081" y="243" type="line"/>
      <point x="1081" y="420" type="line"/>
      <point x="891" y="420" type="line"/>
      <point x="891" y="1266" type="line"/>
      <point x="43" y="243" type="line"/>
      <point x="647" y="243" type="line"/>
    </contour>
    <contour>
      <point x="403" y="420" type="line"/>
      <point x="647" y="760" type="line"/>
      <point x="647" y="420" type="line"/>
    </contour>
  </outline>
</glyph>
<glyph name="five" format="1">
  <advance width="1007"/>
  <unicode hex="0035"/>
  <outline>
    <contour>
      <point x="502" y="-35" type="curve" smooth="yes"/>
      <point x="818" y="-35"/>
      <point x="928" y="162"/>
      <point x="928" y="347" type="curve" smooth="yes"/>
      <point x="928" y="610"/>
      <point x="752" y="761"/>
      <point x="539" y="761" type="curve" smooth="yes"/>
      <point x="488" y="761"/>
      <point x="419" y="747"/>
      <point x="367" y="725" type="curve"/>
      <point x="370" y="830"/>
      <point x="374" y="945"/>
      <point x="379" y="1048" type="curve"/>
      <point x="825" y="1048" type="line"/>
      <point x="844" y="1242" type="line"/>
      <point x="188" y="1242" type="line"/>
      <point x="167" y="555" type="line"/>
      <point x="328" y="510" type="line"/>
      <point x="365" y="552"/>
      <point x="434" y="573"/>
      <point x="498" y="573" type="curve" smooth="yes"/>
      <point x="609" y="573"/>
      <point x="690" y="484"/>
      <point x="690" y="370" type="curve" smooth="yes"/>
      <point x="690" y="260"/>
      <point x="619" y="173"/>
      <point x="484" y="173" type="curve" smooth="yes"/>
      <point x="350" y="173"/>
      <point x="220" y="232"/>
      <point x="159" y="272" type="curve"/>
      <point x="110" y="82" type="line"/>
      <point x="169" y="37"/>
      <point x="332" y="-35"/>
    </contour>
  </outline>
</glyph>
<glyph name="seven" format="1">
  <advance width="1000"/>
  <unicode hex="0037"/>
  <outline>
    <contour>
      <point x="223" y="0" type="line"/>
      <point x="477" y="0" type="line"/>
      <point x="866" y="1064" type="line"/>
      <point x="866" y="1241" type="line"/>
      <point x="148" y="1241" type="line"/>
      <point x="148" y="1031" type="line"/>
      <point x="603" y="1031" type="line"/>
    </contour>
  </outline>
</glyph>
<glyph name="eight" format="1">
  <advance width="1112"/>
  <unicode hex="0038"/>
  <outline>
    <contour>
      <point x="563" y="-33" type="curve" smooth="yes"/>
      <point x="796" y="-33"/>
      <point x="983" y="83"/>
      <point x="983" y="305" type="curve" smooth="yes"/>
      <point x="983" y="450"/>
      <point x="907" y="558"/>
      <point x="745" y="651" type="curve"/>
      <point x="892" y="730"/>
      <point x="959" y="838"/>
      <point x="959" y="953" type="curve" smooth="yes"/>
      <point x="959" y="1153"/>
      <point x="784" y="1277"/>
      <point x="557" y="1277" type="curve" smooth="yes"/>
      <point x="325" y="1277"/>
      <point x="164" y="1128"/>
      <point x="164" y="951" type="curve" smooth="yes"/>
      <point x="164" y="835"/>
      <point x="248" y="722"/>
      <point x="371" y="649" type="curve"/>
      <point x="229" y="561"/>
      <point x="140" y="443"/>
      <point x="140" y="296" type="curve" smooth="yes"/>
      <point x="140" y="79"/>
      <point x="347" y="-33"/>
    </contour>
    <contour>
      <point x="549" y="715" type="curve"/>
      <point x="428" y="755"/>
      <point x="360" y="844"/>
      <point x="360" y="945" type="curve" smooth="yes"/>
      <point x="360" y="1042"/>
      <point x="446" y="1106"/>
      <point x="558" y="1106" type="curve" smooth="yes"/>
      <point x="671" y="1106"/>
      <point x="761" y="1042"/>
      <point x="761" y="945" type="curve" smooth="yes"/>
      <point x="761" y="853"/>
      <point x="697" y="766"/>
    </contour>
    <contour>
      <point x="558" y="139" type="curve" smooth="yes"/>
      <point x="442" y="139"/>
      <point x="347" y="204"/>
      <point x="347" y="324" type="curve" smooth="yes"/>
      <point x="347" y="438"/>
      <point x="414" y="535"/>
      <point x="557" y="589" type="curve"/>
      <point x="696" y="542"/>
      <point x="782" y="435"/>
      <point x="782" y="331" type="curve" smooth="yes"/>
      <point x="782" y="201"/>
      <point x="680" y="139"/>
    </contour>
  </outline>
</glyph>
<glyph name="nine" format="1">
  <advance width="1114"/>
  <unicode hex="0039"/>
  <outline>
    <contour>
      <point x="244" y="0" type="line"/>
      <point x="505" y="0" type="line"/>
      <point x="505" y="0"/>
      <point x="758" y="314"/>
      <point x="834" y="420" type="curve" smooth="yes"/>
      <point x="954" y="586"/>
      <point x="1011" y="700"/>
      <point x="1011" y="864" type="curve" smooth="yes"/>
      <point x="1011" y="1093"/>
      <point x="828" y="1275"/>
      <point x="569" y="1275" type="curve" smooth="yes"/>
      <point x="323" y="1275"/>
      <point x="125" y="1116"/>
      <point x="125" y="869" type="curve" smooth="yes"/>
      <point x="125" y="631"/>
      <point x="314" y="479"/>
      <point x="519" y="479" type="curve" smooth="yes"/>
      <point x="553" y="479"/>
      <point x="602" y="488"/>
      <point x="632" y="502" type="curve"/>
    </contour>
    <contour>
      <point x="569" y="656" type="curve" smooth="yes"/>
      <point x="429" y="656"/>
      <point x="349" y="751"/>
      <point x="349" y="868" type="curve" smooth="yes"/>
      <point x="349" y="982"/>
      <point x="432" y="1087"/>
      <point x="575" y="1087" type="curve" smooth="yes"/>
      <point x="719" y="1087"/>
      <point x="791" y="987"/>
      <point x="791" y="875" type="curve" smooth="yes"/>
      <point x="791" y="761"/>
      <point x="718" y="656"/>
    </contour>
  </outline>
</glyph>
<glyph name="less" format="1">
  <advance width="1013"/>
  <unicode hex="003C"/>
  <outline>
    <contour>
      <point x="947" y="-52" type="line"/>
      <point x="947" y="193" type="line"/>
      <point x="461" y="412" type="line"/>
      <point x="947" y="637" type="line"/>
      <point x="947" y="881" type="line"/>
      <point x="61" y="412" type="line"/>
    </contour>
  </outline>
</glyph>
<glyph name="equal" format="1">
  <advance width="1137"/>
  <unicode hex="003D"/>
  <outline>
    <contour>
      <point x="195" y="334" type="line"/>
      <point x="911" y="334" type="line"/>
      <point x="911" y="475" type="line"/>
      <point x="195" y="475" type="line"/>
    </contour>
    <contour>
      <point x="195" y="648" type="line"/>
      <point x="911" y="648" type="line"/>
      <point x="911" y="789" type="line"/>
      <point x="195" y="789" type="line"/>
    </contour>
  </outline>
</glyph>
<glyph name="greater" format="1">
  <advance width="1013"/>
  <unicode hex="003E"/>
  <outline>
    <contour>
      <point x="67" y="-52" type="line"/>
      <point x="953" y="417" type="line"/>
      <point x="67" y="881" type="line"/>
      <point x="67" y="637" type="line"/>
      <point x="552" y="417" type="line"/>
      <point x="67" y="192" type="line"/>
    </contour>
  </outline>
</glyph>
<glyph name="question" format="1">
  <advance width="1009"/>
  <unicode hex="003F"/>
  <outline>
    <contour>
      <point x="292" y="390" type="curve"/>
      <point x="467" y="390" type="line"/>
      <point x="774" y="654"/>
      <point x="886" y="794"/>
      <point x="886" y="948" type="curve" smooth="yes"/>
      <point x="886" y="1150"/>
      <point x="739" y="1275"/>
      <point x="510" y="1275" type="curve" smooth="yes"/>
      <point x="340" y="1275"/>
      <point x="168" y="1172"/>
      <point x="146" y="1152" type="curve"/>
      <point x="226" y="981" type="line"/>
      <point x="253" y="1001"/>
      <point x="382" y="1071"/>
      <point x="485" y="1071" type="curve" smooth="yes"/>
      <point x="576" y="1071"/>
      <point x="646" y="1019"/>
      <point x="646" y="916" type="curve" smooth="yes"/>
      <point x="646" y="808"/>
      <point x="585" y="722"/>
    </contour>
    <component base="period" xOffset="101"/>
  </outline>
</glyph>
<glyph name="at" format="1">
  <advance width="1465"/>
  <unicode hex="0040"/>
  <outline>
    <contour>
      <point x="731" y="-108" type="curve" smooth="yes"/>
      <point x="970" y="-108"/>
      <point x="1151" y="-21"/>
      <point x="1244" y="34" type="curve"/>
      <point x="1210" y="156" type="line"/>
      <point x="1120" y="102"/>
      <point x="943" y="29"/>
      <point x="744" y="29" type="curve" smooth="yes"/>
      <point x="433" y="29"/>
      <point x="199" y="193"/>
      <point x="199" y="532" type="curve" smooth="yes"/>
      <point x="199" y="779"/>
      <point x="346" y="1078"/>
      <point x="786" y="1078" type="curve" smooth="yes"/>
      <point x="1036" y="1078"/>
      <point x="1232" y="916"/>
      <point x="1232" y="616" type="curve" smooth="yes"/>
      <point x="1232" y="399"/>
      <point x="1149" y="319"/>
      <point x="1072" y="319" type="curve" smooth="yes"/>
      <point x="991" y="319"/>
      <point x="990" y="417"/>
      <point x="990" y="498" type="curve" smooth="yes"/>
      <point x="990" y="928" type="line"/>
      <point x="949" y="932"/>
      <point x="899" y="934"/>
      <point x="863" y="934" type="curve" smooth="yes"/>
      <point x="403" y="934"/>
      <point x="364" y="614"/>
      <point x="370" y="492" type="curve" smooth="yes"/>
      <point x="379" y="322"/>
      <point x="494" y="204"/>
      <point x="633" y="204" type="curve" smooth="yes"/>
      <point x="712" y="204"/>
      <point x="810" y="247"/>
      <point x="866" y="371" type="curve"/>
      <point x="891" y="248"/>
      <point x="974" y="203"/>
      <point x="1060" y="203" type="curve" smooth="yes"/>
      <point x="1211" y="203"/>
      <point x="1386" y="355"/>
      <point x="1386" y="633" type="curve" smooth="yes"/>
      <point x="1386" y="931"/>
      <point x="1175" y="1213"/>
      <point x="773" y="1213" type="curve" smooth="yes"/>
      <point x="249" y="1213"/>
      <point x="36" y="844"/>
      <point x="36" y="532" type="curve" smooth="yes"/>
      <point x="36" y="125"/>
      <point x="357" y="-108"/>
    </contour>
    <contour>
      <point x="666" y="332" type="curve" smooth="yes"/>
      <point x="590" y="327"/>
      <point x="534" y="382"/>
      <point x="526" y="480" type="curve" smooth="yes"/>
      <point x="516" y="608"/>
      <point x="560" y="809"/>
      <point x="842" y="809" type="curve"/>
      <point x="842" y="462" type="line"/>
      <point x="812" y="398"/>
      <point x="739" y="337"/>
    </contour>
  </outline>
</glyph>
<glyph name="A" format="1">
  <advance width="1284"/>
  <unicode hex="0041"/>
  <outline>
    <contour>
      <point x="70" y="0" type="line"/>
      <point x="325" y="0" type="line"/>
      <point x="450" y="293" type="line"/>
      <point x="864" y="293" type="line"/>
      <point x="998" y="0" type="line"/>
      <point x="1248" y="0" type="line"/>
      <point x="653" y="1292" type="line"/>
    </contour>
    <contour>
      <point x="498" y="445" type="line"/>
      <point x="654" y="834" type="line"/>
      <point x="819" y="445" type="line"/>
    </contour>
    <contour>
      <point x="642" y="1241" type="move" name="top"/>
    </contour>
    <contour>
      <point x="1156" y="10" type="move" name="ogonek"/>
    </contour>
  </outline>
</glyph>
<glyph name="B" format="1">
  <advance width="1103"/>
  <unicode hex="0042"/>
  <outline>
    <contour>
      <point x="146" y="0" type="line"/>
      <point x="526" y="0" type="line" smooth="yes"/>
      <point x="819" y="0"/>
      <point x="1019" y="116"/>
      <point x="1019" y="371" type="curve" smooth="yes"/>
      <point x="1019" y="552"/>
      <point x="895" y="644"/>
      <point x="772" y="692" type="curve"/>
      <point x="880" y="728"/>
      <point x="947" y="817"/>
      <point x="947" y="926" type="curve" smooth="yes"/>
      <point x="947" y="1136"/>
      <point x="797" y="1241"/>
      <point x="493" y="1241" type="curve" smooth="yes"/>
      <point x="146" y="1241" type="line"/>
    </contour>
    <contour>
      <point x="385" y="163" type="line"/>
      <point x="385" y="606" type="line"/>
      <point x="504" y="606" type="line" smooth="yes"/>
      <point x="679" y="606"/>
      <point x="792" y="512"/>
      <point x="792" y="378" type="curve" smooth="yes"/>
      <point x="792" y="249"/>
      <point x="709" y="163"/>
      <point x="506" y="163" type="curve" smooth="yes"/>
    </contour>
    <contour>
      <point x="386" y="749" type="line"/>
      <point x="386" y="1079" type="line"/>
      <point x="475" y="1079" type="line" smooth="yes"/>
      <point x="658" y="1079"/>
      <point x="744" y="1039"/>
      <point x="744" y="915" type="curve" smooth="yes"/>
      <point x="744" y="758"/>
      <point x="564" y="749"/>
      <point x="467" y="749" type="curve" smooth="yes"/>
    </contour>
  </outline>
</glyph>
<glyph name="C" format="1">
  <advance width="1287"/>
  <unicode hex="0043"/>
  <outline>
    <contour>
      <point x="759" y="-33" type="curve" smooth="yes"/>
      <point x="967" y="-33"/>
      <point x="1147" y="52"/>
      <point x="1172" y="64" type="curve"/>
      <point x="1172" y="289" type="line"/>
      <point x="1062" y="218"/>
      <point x="914" y="172"/>
      <point x="782" y="172" type="curve" smooth="yes"/>
      <point x="530" y="172"/>
      <point x="329" y="314"/>
      <point x="329" y="622" type="curve" smooth="yes"/>
      <point x="329" y="931"/>
      <point x="530" y="1069"/>
      <point x="779" y="1069" type="curve" smooth="yes"/>
      <point x="920" y="1069"/>
      <point x="1062" y="1021"/>
      <point x="1172" y="950" type="curve"/>
      <point x="1172" y="1172" type="line"/>
      <point x="1149" y="1186"/>
      <point x="967" y="1275"/>
      <point x="759" y="1275" type="curve" smooth="yes"/>
      <point x="371" y="1275"/>
      <point x="83" y="1027"/>
      <point x="83" y="622" type="curve" smooth="yes"/>
      <point x="83" y="218"/>
      <point x="368" y="-33"/>
    </contour>
    <contour>
      <point x="644" y="1241" type="move" name="top"/>
    </contour>
    <contour>
      <point x="644" y="0" type="move" name="bottom"/>
    </contour>
  </outline>
</glyph>
<glyph name="D" format="1">
  <advance width="1401"/>
  <unicode hex="0044"/>
  <outline>
    <contour>
      <point x="146" y="0" type="line"/>
      <point x="650" y="0" type="line" smooth="yes"/>
      <point x="1070" y="0"/>
      <point x="1304" y="296"/>
      <point x="1304" y="627" type="curve" smooth="yes"/>
      <point x="1304" y="987"/>
      <point x="1087" y="1241"/>
      <point x="678" y="1241" type="curve" smooth="yes"/>
      <point x="146" y="1241" type="line"/>
    </contour>
    <contour>
      <point x="381" y="185" type="line"/>
      <point x="381" y="1057" type="line"/>
      <point x="665" y="1057" type="line" smooth="yes"/>
      <point x="915" y="1057"/>
      <point x="1061" y="882"/>
      <point x="1061" y="623" type="curve" smooth="yes"/>
      <point x="1061" y="365"/>
      <point x="907" y="185"/>
      <point x="621" y="185" type="curve" smooth="yes"/>
    </contour>
    <contour>
      <point x="700" y="1241" type="move" name="top"/>
    </contour>
    <contour>
      <point x="700" y="621" type="move" name="center"/>
    </contour>
  </outline>
</glyph>
<glyph name="E" format="1">
  <advance width="973"/>
  <unicode hex="0045"/>
  <outline>
    <contour>
      <point x="159" y="0" type="line"/>
      <point x="891" y="0" type="line"/>
      <point x="891" y="209" type="line"/>
      <point x="392" y="209" type="line"/>
      <point x="392" y="539" type="line"/>
      <point x="816" y="539" type="line"/>
      <point x="816" y="739" type="line"/>
      <point x="394" y="739" type="line"/>
      <point x="394" y="1039" type="line"/>
      <point x="881" y="1039" type="line"/>
      <point x="881" y="1241" type="line"/>
      <point x="159" y="1241" type="line"/>
    </contour>
    <contour>
      <point x="487" y="1241" type="move" name="top"/>
    </contour>
    <contour>
      <point x="876" y="10" type="move" name="ogonek"/>
    </contour>
    <contour>
      <point x="487" y="0" type="move" name="bottom"/>
    </contour>
  </outline>
</glyph>
<glyph name="F" format="1">
  <advance width="931"/>
  <unicode hex="0046"/>
  <outline>
    <contour>
      <point x="159" y="0" type="line"/>
      <point x="393" y="0" type="line"/>
      <point x="393" y="539" type="line"/>
      <point x="781" y="539" type="line"/>
      <point x="781" y="739" type="line"/>
      <point x="394" y="739" type="line"/>
      <point x="394" y="1039" type="line"/>
      <point x="847" y="1039" type="line"/>
      <point x="847" y="1241" type="line"/>
      <point x="159" y="1241" type="line"/>
    </contour>
  </outline>
</glyph>
<glyph name="G" format="1">
  <advance width="1405"/>
  <unicode hex="0047"/>
  <outline>
    <contour>
      <point x="753" y="-33" type="curve" smooth="yes"/>
      <point x="1018" y="-33"/>
      <point x="1172" y="35"/>
      <point x="1299" y="111" type="curve"/>
      <point x="1299" y="697" type="line"/>
      <point x="769" y="697" type="line"/>
      <point x="769" y="506" type="line"/>
      <point x="1072" y="506" type="line"/>
      <point x="1072" y="233" type="line"/>
      <point x="1023" y="213"/>
      <point x="919" y="172"/>
      <point x="779" y="172" type="curve" smooth="yes"/>
      <point x="546" y="172"/>
      <point x="329" y="304"/>
      <point x="329" y="622" type="curve" smooth="yes"/>
      <point x="329" y="937"/>
      <point x="550" y="1069"/>
      <point x="793" y="1069" type="curve" smooth="yes"/>
      <point x="927" y="1069"/>
      <point x="1068" y="1027"/>
      <point x="1186" y="955" type="curve"/>
      <point x="1186" y="1179" type="line"/>
      <point x="1162" y="1189"/>
      <point x="978" y="1275"/>
      <point x="770" y="1275" type="curve" smooth="yes"/>
      <point x="389" y="1275"/>
      <point x="83" y="1026"/>
      <point x="83" y="622" type="curve" smooth="yes"/>
      <point x="83" y="209"/>
      <point x="389" y="-33"/>
    </contour>
    <contour>
      <point x="702" y="1241" type="move" name="top"/>
    </contour>
    <contour>
      <point x="702" y="0" type="move" name="bottom"/>
    </contour>
  </outline>
</glyph>
<glyph name="H" format="1">
  <advance width="1324"/>
  <unicode hex="0048"/>
  <outline>
    <contour>
      <point x="146" y="0" type="line"/>
      <point x="390" y="0" type="line"/>
      <point x="390" y="548" type="line"/>
      <point x="933" y="548" type="line"/>
      <point x="933" y="0" type="line"/>
      <point x="1177" y="0" type="line"/>
      <point x="1177" y="1241" type="line"/>
      <point x="933" y="1241" type="line"/>
      <point x="933" y="757" type="line"/>
      <point x="390" y="757" type="line"/>
      <point x="390" y="1241" type="line"/>
      <point x="146" y="1241" type="line"/>
    </contour>
    <contour>
      <point x="662" y="1241" type="move" name="top"/>
    </contour>
    <contour>
      <point x="662" y="621" type="move" name="center"/>
    </contour>
  </outline>
</glyph>
<glyph name="J" format="1">
  <advance width="988"/>
  <unicode hex="004A"/>
  <outline>
    <contour>
      <point x="384" y="-25" type="curve" smooth="yes"/>
      <point x="688" y="-25"/>
      <point x="820" y="138"/>
      <point x="820" y="476" type="curve" smooth="yes"/>
      <point x="820" y="1241" type="line"/>
      <point x="586" y="1241" type="line"/>
      <point x="586" y="478" type="line" smooth="yes"/>
      <point x="586" y="251"/>
      <point x="516" y="161"/>
      <point x="364" y="161" type="curve" smooth="yes"/>
      <point x="254" y="161"/>
      <point x="148" y="223"/>
      <point x="113" y="239" type="curve"/>
      <point x="113" y="43" type="line"/>
      <point x="124" y="37"/>
      <point x="206" y="-25"/>
    </contour>
    <contour>
      <point x="494" y="1241" type="move" name="top"/>
    </contour>
  </outline>
</glyph>
<glyph name="K" format="1">
  <advance width="1208"/>
  <unicode hex="004B"/>
  <outline>
    <contour>
      <point x="146" y="0" type="line"/>
      <point x="386" y="0" type="line"/>
      <point x="386" y="587" type="line"/>
      <point x="886" y="0" type="line"/>
      <point x="1178" y="0" type="line"/>
      <point x="630" y="637" type="line"/>
      <point x="1145" y="1241" type="line"/>
      <point x="861" y="1241" type="line"/>
      <point x="385" y="685" type="line"/>
      <point x="385" y="1242" type="line"/>
      <point x="146" y="1242" type="line"/>
    </contour>
    <contour>
      <point x="604" y="1241" type="move" name="top"/>
    </contour>
    <contour>
      <point x="604" y="0" type="move" name="bottom"/>
    </contour>
  </outline>
</glyph>
<glyph name="M" format="1">
  <advance width="1667"/>
  <unicode hex="004D"/>
  <outline>
    <contour>
      <point x="834" y="-7" type="line"/>
      <point x="1253" y="693" type="line"/>
      <point x="1362" y="0" type="line"/>
      <point x="1591" y="0" type="line"/>
      <point x="1374" y="1298" type="line"/>
      <point x="834" y="384" type="line"/>
      <point x="294" y="1298" type="line"/>
      <point x="76" y="0" type="line"/>
      <point x="305" y="0" type="line"/>
      <point x="415" y="693" type="line"/>
    </contour>
  </outline>
</glyph>
<glyph name="N" format="1">
  <advance width="1352"/>
  <unicode hex="004E"/>
  <outline>
    <contour>
      <point x="1204" y="-48" type="line"/>
      <point x="1204" y="1241" type="line"/>
      <point x="960" y="1241" type="line"/>
      <point x="960" y="484" type="line"/>
      <point x="146" y="1294" type="line"/>
      <point x="146" y="0" type="line"/>
      <point x="390" y="0" type="line"/>
      <point x="390" y="755" type="line"/>
    </contour>
    <contour>
      <point x="676" y="1241" type="move" name="top"/>
    </contour>
    <contour>
      <point x="676" y="0" type="move" name="bottom"/>
    </contour>
  </outline>
</glyph>
<glyph name="O" format="1">
  <advance width="1511"/>
  <unicode hex="004F"/>
  <outline>
    <contour>
      <point x="748" y="171" type="curve" smooth="yes"/>
      <point x="536" y="171"/>
      <point x="329" y="320"/>
      <point x="329" y="620" type="curve" smooth="yes"/>
      <point x="329" y="920"/>
      <point x="531" y="1071"/>
      <point x="748" y="1071" type="curve" smooth="yes"/>
      <point x="964" y="1071"/>
      <point x="1169" y="920"/>
      <point x="1169" y="619" type="curve" smooth="yes"/>
      <point x="1169" y="321"/>
      <point x="954" y="171"/>
    </contour>
    <contour>
      <point x="749" y="-33" type="curve" smooth="yes"/>
      <point x="1083" y="-33"/>
      <point x="1414" y="184"/>
      <point x="1414" y="624" type="curve" smooth="yes"/>
      <point x="1414" y="1058"/>
      <point x="1083" y="1275"/>
      <point x="748" y="1275" type="curve" smooth="yes"/>
      <point x="414" y="1275"/>
      <point x="83" y="1058"/>
      <point x="83" y="620" type="curve" smooth="yes"/>
      <point x="83" y="184"/>
      <point x="414" y="-33"/>
    </contour>
    <contour>
      <point x="756" y="1241" type="move" name="top"/>
    </contour>
  </outline>
</glyph>
<glyph name="P" format="1">
  <advance width="1063"/>
  <unicode hex="0050"/>
  <outline>
    <contour>
      <point x="166" y="0" type="line"/>
      <point x="406" y="0" type="line"/>
      <point x="406" y="506" type="line"/>
      <point x="485" y="506" type="line" smooth="yes"/>
      <point x="685" y="506"/>
      <point x="989" y="539"/>
      <point x="989" y="871" type="curve" smooth="yes"/>
      <point x="989" y="1124"/>
      <point x="801" y="1242"/>
      <point x="516" y="1242" type="curve" smooth="yes"/>
      <point x="166" y="1242" type="line"/>
    </contour>
    <contour>
      <point x="405" y="644" type="line"/>
      <point x="405" y="1081" type="line"/>
      <point x="488" y="1081" type="line" smooth="yes"/>
      <point x="688" y="1081"/>
      <point x="761" y="986"/>
      <point x="761" y="866" type="curve" smooth="yes"/>
      <point x="761" y="724"/>
      <point x="656" y="644"/>
      <point x="493" y="644" type="curve" smooth="yes"/>
    </contour>
  </outline>
</glyph>
<glyph name="Q" format="1">
  <advance width="1511"/>
  <unicode hex="0051"/>
  <outline>
    <contour>
      <point x="1261" y="-183" type="line"/>
      <point x="1415" y="-64" type="line"/>
      <point x="917" y="384" type="line"/>
      <point x="835" y="299" type="line"/>
    </contour>
    <component base="O"/>
  </outline>
</glyph>
<glyph name="R" format="1">
  <advance width="1122"/>
  <unicode hex="0052"/>
  <outline>
    <contour>
      <point x="166" y="0" type="line"/>
      <point x="406" y="0" type="line"/>
      <point x="406" y="541" type="line"/>
      <point x="423" y="541" type="line"/>
      <point x="824" y="0" type="line"/>
      <point x="1101" y="0" type="line"/>
      <point x="651" y="575" type="line"/>
      <point x="852" y="606"/>
      <point x="974" y="715"/>
      <point x="974" y="891" type="curve" smooth="yes"/>
      <point x="974" y="1137"/>
      <point x="772" y="1242"/>
      <point x="503" y="1242" type="curve" smooth="yes"/>
      <point x="166" y="1242" type="line"/>
    </contour>
    <contour>
      <point x="405" y="676" type="line"/>
      <point x="405" y="1081" type="line"/>
      <point x="475" y="1081" type="line" smooth="yes"/>
      <point x="665" y="1081"/>
      <point x="746" y="1005"/>
      <point x="746" y="886" type="curve" smooth="yes"/>
      <point x="746" y="743"/>
      <point x="619" y="676"/>
      <point x="461" y="676" type="curve" smooth="yes"/>
    </contour>
    <contour>
      <point x="562" y="1241" type="move" name="top"/>
    </contour>
    <contour>
      <point x="562" y="0" type="move" name="bottom"/>
    </contour>
  </outline>
</glyph>
<glyph name="S" format="1">
  <advance width="956"/>
  <unicode hex="0053"/>
  <outline>
    <contour>
      <point x="512" y="-33" type="curve" smooth="yes"/>
      <point x="703" y="-33"/>
      <point x="875" y="75"/>
      <point x="875" y="306" type="curve" smooth="yes"/>
      <point x="875" y="431"/>
      <point x="809" y="534"/>
      <point x="647" y="649" type="curve" smooth="yes"/>
      <point x="436" y="796" type="line" smooth="yes"/>
      <point x="366" y="845"/>
      <point x="329" y="897"/>
      <point x="329" y="947" type="curve" smooth="yes"/>
      <point x="329" y="1012"/>
      <point x="371" y="1077"/>
      <point x="505" y="1077" type="curve" smooth="yes"/>
      <point x="623" y="1077"/>
      <point x="783" y="1006"/>
      <point x="816" y="988" type="curve"/>
      <point x="816" y="1192" type="line" smooth="yes"/>
      <point x="796" y="1206"/>
      <point x="657" y="1276"/>
      <point x="474" y="1276" type="curve" smooth="yes"/>
      <point x="223" y="1276"/>
      <point x="96" y="1118"/>
      <point x="96" y="940" type="curve" smooth="yes"/>
      <point x="96" y="831"/>
      <point x="164" y="718"/>
      <point x="277" y="640" type="curve" smooth="yes"/>
      <point x="525" y="468" type="line" smooth="yes"/>
      <point x="623" y="401"/>
      <point x="646" y="352"/>
      <point x="646" y="301" type="curve" smooth="yes"/>
      <point x="646" y="219"/>
      <point x="594" y="165"/>
      <point x="483" y="165" type="curve" smooth="yes"/>
      <point x="340" y="165"/>
      <point x="160" y="269"/>
      <point x="125" y="292" type="curve" smooth="yes"/>
      <point x="125" y="82" type="line" smooth="yes"/>
      <point x="144" y="71"/>
      <point x="280" y="-33"/>
    </contour>
    <contour>
      <point x="478" y="1241" type="move" name="top"/>
    </contour>
    <contour>
      <point x="478" y="0" type="move" name="bottom"/>
    </contour>
  </outline>
</glyph>
<glyph name="T" format="1">
  <advance width="1122"/>
  <unicode hex="0054"/>
  <outline>
    <contour>
      <point x="435" y="0" type="line"/>
      <point x="679" y="0" type="line"/>
      <point x="679" y="1031" type="line"/>
      <point x="1055" y="1031" type="line"/>
      <point x="1055" y="1241" type="line"/>
      <point x="59" y="1241" type="line"/>
      <point x="59" y="1031" type="line"/>
      <point x="435" y="1031" type="line"/>
    </contour>
    <contour>
      <point x="561" y="1241" type="move" name="top"/>
    </contour>
    <contour>
      <point x="561" y="621" type="move" name="center"/>
    </contour>
    <contour>
      <point x="561" y="0" type="move" name="bottom"/>
    </contour>
  </outline>
</glyph>
<glyph name="U" format="1">
  <advance width="1402"/>
  <unicode hex="0055"/>
  <outline>
    <contour>
      <point x="690" y="-33" type="curve" smooth="yes"/>
      <point x="1007" y="-33"/>
      <point x="1251" y="142"/>
      <point x="1251" y="493" type="curve" smooth="yes"/>
      <point x="1251" y="1241" type="line"/>
      <point x="1017" y="1241" type="line"/>
      <point x="1017" y="493" type="line" smooth="yes"/>
      <point x="1017" y="257"/>
      <point x="883" y="156"/>
      <point x="690" y="156" type="curve" smooth="yes"/>
      <point x="497" y="156"/>
      <point x="363" y="257"/>
      <point x="363" y="493" type="curve" smooth="yes"/>
      <point x="363" y="1241" type="line"/>
      <point x="129" y="1241" type="line"/>
      <point x="129" y="493" type="line" smooth="yes"/>
      <point x="129" y="142"/>
      <point x="373" y="-33"/>
    </contour>
    <contour>
      <point x="701" y="1241" type="move" name="top"/>
    </contour>
    <contour>
      <point x="1262" y="10" type="move" name="ogonek"/>
    </contour>
  </outline>
</glyph>
<glyph name="V" format="1">
  <advance width="1263"/>
  <unicode hex="0056"/>
  <outline>
    <contour>
      <point x="641" y="-44" type="line"/>
      <point x="1228" y="1241" type="line"/>
      <point x="974" y="1241" type="line"/>
      <point x="639" y="453" type="line"/>
      <point x="279" y="1241" type="line"/>
      <point x="32" y="1241" type="line"/>
    </contour>
  </outline>
</glyph>
<glyph name="W" format="1">
  <advance width="1757"/>
  <unicode hex="0057"/>
  <outline>
    <contour>
      <point x="522" y="-44" type="line"/>
      <point x="848" y="743" type="line"/>
      <point x="1193" y="-44" type="line"/>
      <point x="1697" y="1241" type="line"/>
      <point x="1450" y="1241" type="line"/>
      <point x="1176" y="508" type="line"/>
      <point x="841" y="1279" type="line"/>
      <point x="530" y="508" type="line"/>
      <point x="232" y="1241" type="line"/>
      <point x="-9" y="1241" type="line"/>
    </contour>
    <contour>
      <point x="879" y="1241" type="move" name="top"/>
    </contour>
  </outline>
</glyph>
<glyph name="X" format="1">
  <advance width="1519"/>
  <unicode hex="0058"/>
  <outline>
    <contour>
      <point x="1189" y="0" type="line"/>
      <point x="1476" y="0" type="line"/>
      <point x="393" y="1241" type="line"/>
      <point x="115" y="1241" type="line"/>
    </contour>
    <contour>
      <point x="111" y="0" type="line"/>
      <point x="408" y="0" type="line"/>
      <point x="1424" y="1241" type="line"/>
      <point x="1132" y="1241" type="line"/>
    </contour>
  </outline>
</glyph>
<glyph name="Y" format="1">
  <advance width="1259"/>
  <unicode hex="0059"/>
  <outline>
    <contour>
      <point x="512" y="0" type="line"/>
      <point x="756" y="0" type="line"/>
      <point x="756" y="465" type="line"/>
      <point x="1191" y="1241" type="line"/>
      <point x="940" y="1241" type="line"/>
      <point x="635" y="666" type="line"/>
      <point x="307" y="1241" type="line"/>
      <point x="63" y="1241" type="line"/>
      <point x="512" y="468" type="line"/>
    </contour>
    <contour>
      <point x="630" y="1241" type="move" name="top"/>
    </contour>
  </outline>
</glyph>
<glyph name="Z" format="1">
  <advance width="1059"/>
  <unicode hex="005A"/>
  <outline>
    <contour>
      <point x="84" y="0" type="line"/>
      <point x="946" y="0" type="line"/>
      <point x="946" y="210" type="line"/>
      <point x="450" y="210" type="line"/>
      <point x="960" y="1241" type="line"/>
      <point x="112" y="1241" type="line"/>
      <point x="112" y="1031" type="line"/>
      <point x="603" y="1031" type="line"/>
    </contour>
    <contour>
      <point x="530" y="1241" type="move" name="top"/>
    </contour>
  </outline>
</glyph>
<glyph name="bracketleft" format="1">
  <advance width="973"/>
  <unicode hex="005B"/>
  <outline>
    <contour>
      <point x="313" y="0" type="line"/>
      <point x="821" y="0" type="line"/>
      <point x="821" y="177" type="line"/>
      <point x="556" y="177" type="line"/>
      <point x="556" y="1064" type="line"/>
      <point x="821" y="1064" type="line"/>
      <point x="821" y="1241" type="line"/>
      <point x="313" y="1241" type="line"/>
    </contour>
  </outline>
</glyph>
<glyph name="backslash" format="1">
  <advance width="288"/>
  <unicode hex="005C"/>
  <outline>
    <contour>
      <point x="110" y="0" type="line"/>
      <point x="320" y="0" type="line"/>
      <point x="872" y="1241" type="line"/>
      <point x="660" y="1241" type="line"/>
    </contour>
  </outline>
</glyph>
<glyph name="bracketright" format="1">
  <advance width="973"/>
  <unicode hex="005D"/>
  <outline>
    <contour>
      <point x="310" y="0" type="line"/>
      <point x="819" y="0" type="line"/>
      <point x="819" y="1241" type="line"/>
      <point x="310" y="1241" type="line"/>
      <point x="310" y="1064" type="line"/>
      <point x="575" y="1064" type="line"/>
      <point x="575" y="177" type="line"/>
      <point x="310" y="177" type="line"/>
    </contour>
  </outline>
</glyph>
<glyph name="underscore" format="1">
  <advance width="999"/>
  <unicode hex="005F"/>
  <outline>
    <contour>
      <point x="143" y="-193" type="line"/>
      <point x="893" y="-193" type="line"/>
      <point x="893" y="-1" type="line"/>
      <point x="143" y="-1" type="line"/>
    </contour>
  </outline>
</glyph>
<glyph name="grave" format="1">
  <advance width="496"/>
  <unicode hex="0060"/>
  <outline>
    <contour>
      <point x="400" y="99" type="curve" smooth="yes"/>
      <point x="389" y="99"/>
      <point x="378" y="105"/>
      <point x="367" y="116" type="curve" smooth="yes"/>
      <point x="114" y="396" type="line" smooth="yes"/>
      <point x="88" y="425"/>
      <point x="77" y="454"/>
      <point x="77" y="479" type="curve" smooth="yes"/>
      <point x="77" y="527"/>
      <point x="117" y="564"/>
      <point x="161" y="564" type="curve" smooth="yes"/>
      <point x="196" y="564"/>
      <point x="236" y="541"/>
      <point x="263" y="484" type="curve" smooth="yes"/>
      <point x="424" y="157" type="line" smooth="yes"/>
      <point x="428" y="148"/>
      <point x="429" y="139"/>
      <point x="429" y="132" type="curve" smooth="yes"/>
      <point x="429" y="112"/>
      <point x="416" y="99"/>
    </contour>
    <contour>
      <point x="253" y="863" type="move" name="_top"/>
    </contour>
  </outline>
</glyph>
<glyph name="a" format="1">
  <advance width="940"/>
  <unicode hex="0061"/>
  <outline>
    <contour>
      <point x="411" y="129" type="curve" smooth="yes"/>
      <point x="358" y="129"/>
      <point x="322" y="172"/>
      <point x="322" y="230" type="curve" smooth="yes"/>
      <point x="322" y="276"/>
      <point x="349" y="334"/>
      <point x="452" y="374" type="curve" smooth="yes"/>
      <point x="465" y="381"/>
      <point x="545" y="403"/>
      <point x="561" y="409" type="curve"/>
      <point x="561" y="202" type="line"/>
      <point x="526" y="161"/>
      <point x="472" y="129"/>
    </contour>
    <contour>
      <point x="360" y="-22" type="curve" smooth="yes"/>
      <point x="427" y="-22"/>
      <point x="529" y="7"/>
      <point x="600" y="106" type="curve"/>
      <point x="641" y="27"/>
      <point x="754" y="-14"/>
      <point x="833" y="-14" type="curve" smooth="yes"/>
      <point x="833" y="-14"/>
      <point x="845" y="-14"/>
      <point x="846" y="-14" type="curve"/>
      <point x="906" y="165" type="line"/>
      <point x="892" y="165" type="line" smooth="yes"/>
      <point x="826" y="165"/>
      <point x="781" y="195"/>
      <point x="781" y="281" type="curve" smooth="yes"/>
      <point x="781" y="591" type="line" smooth="yes"/>
      <point x="781" y="802"/>
      <point x="606" y="881"/>
      <point x="454" y="881" type="curve" smooth="yes"/>
      <point x="268" y="881"/>
      <point x="134" y="798"/>
      <point x="109" y="782" type="curve"/>
      <point x="171" y="613" type="line"/>
      <point x="219" y="639"/>
      <point x="332" y="700"/>
      <point x="425" y="700" type="curve" smooth="yes"/>
      <point x="496" y="700"/>
      <point x="562" y="675"/>
      <point x="562" y="548" type="curve" smooth="yes"/>
      <point x="562" y="519" type="line"/>
      <point x="439" y="490" type="line" smooth="yes"/>
      <point x="187" y="432"/>
      <point x="104" y="320"/>
      <point x="104" y="217" type="curve" smooth="yes"/>
      <point x="104" y="67"/>
      <point x="223" y="-22"/>
    </contour>
    <contour>
      <point x="471" y="863" type="move" name="top"/>
    </contour>
    <contour>
      <point x="846" y="10" type="move" name="ogonek"/>
    </contour>
  </outline>
</glyph>
<glyph name="b" format="1">
  <advance width="1085"/>
  <unicode hex="0062"/>
  <outline>
    <contour>
      <point x="513" y="-19" type="curve" smooth="yes"/>
      <point x="812" y="-19"/>
      <point x="996" y="159"/>
      <point x="996" y="452" type="curve" smooth="yes"/>
      <point x="996" y="693"/>
      <point x="825" y="881"/>
      <point x="598" y="881" type="curve" smooth="yes"/>
      <point x="490" y="881"/>
      <point x="407" y="838"/>
      <point x="360" y="812" type="curve"/>
      <point x="360" y="1264" type="line"/>
      <point x="137" y="1233" type="line"/>
      <point x="137" y="51" type="line"/>
      <point x="277" y="5"/>
      <point x="405" y="-19"/>
    </contour>
    <contour>
      <point x="486" y="152" type="curve" smooth="yes"/>
      <point x="436" y="152"/>
      <point x="393" y="159"/>
      <point x="360" y="165" type="curve"/>
      <point x="360" y="650" type="line"/>
      <point x="392" y="665"/>
      <point x="474" y="702"/>
      <point x="546" y="702" type="curve" smooth="yes"/>
      <point x="697" y="702"/>
      <point x="777" y="584"/>
      <point x="777" y="435" type="curve" smooth="yes"/>
      <point x="777" y="244"/>
      <point x="661" y="152"/>
    </contour>
  </outline>
</glyph>
<glyph name="c" format="1">
  <advance width="933"/>
  <unicode hex="0063"/>
  <outline>
    <contour>
      <point x="576" y="-22" type="curve" smooth="yes"/>
      <point x="722" y="-22"/>
      <point x="813" y="38"/>
      <point x="838" y="52" type="curve"/>
      <point x="838" y="242" type="line"/>
      <point x="782" y="211"/>
      <point x="714" y="168"/>
      <point x="587" y="168" type="curve" smooth="yes"/>
      <point x="404" y="168"/>
      <point x="309" y="286"/>
      <point x="309" y="431" type="curve" smooth="yes"/>
      <point x="309" y="573"/>
      <point x="405" y="688"/>
      <point x="582" y="688" type="curve" smooth="yes"/>
      <point x="737" y="688"/>
      <point x="821" y="615"/>
      <point x="838" y="602" type="curve"/>
      <point x="838" y="811" type="line"/>
      <point x="823" y="821"/>
      <point x="743" y="880"/>
      <point x="571" y="880" type="curve" smooth="yes"/>
      <point x="295" y="880"/>
      <point x="89" y="699"/>
      <point x="89" y="430" type="curve" smooth="yes"/>
      <point x="89" y="167"/>
      <point x="283" y="-22"/>
    </contour>
    <contour>
      <point x="467" y="863" type="move" name="top"/>
    </contour>
    <contour>
      <point x="467" y="0" type="move" name="bottom"/>
    </contour>
  </outline>
</glyph>
<glyph name="d" format="1">
  <advance width="1087"/>
  <unicode hex="0064"/>
  <outline>
    <contour>
      <point x="574" y="-19" type="curve" smooth="yes"/>
      <point x="682" y="-19"/>
      <point x="810" y="5"/>
      <point x="949" y="51" type="curve"/>
      <point x="949" y="1264" type="line"/>
      <point x="727" y="1233" type="line"/>
      <point x="727" y="816" type="line"/>
      <point x="681" y="841"/>
      <point x="597" y="881"/>
      <point x="489" y="881" type="curve" smooth="yes"/>
      <point x="262" y="881"/>
      <point x="89" y="693"/>
      <point x="89" y="452" type="curve" smooth="yes"/>
      <point x="89" y="159"/>
      <point x="269" y="-19"/>
    </contour>
    <contour>
      <point x="601" y="152" type="curve" smooth="yes"/>
      <point x="426" y="152"/>
      <point x="308" y="244"/>
      <point x="308" y="435" type="curve" smooth="yes"/>
      <point x="308" y="586"/>
      <point x="393" y="702"/>
      <point x="547" y="702" type="curve" smooth="yes"/>
      <point x="625" y="702"/>
      <point x="694" y="669"/>
      <point x="727" y="653" type="curve"/>
      <point x="727" y="165" type="line"/>
      <point x="695" y="159"/>
      <point x="651" y="152"/>
    </contour>
    <contour>
      <point x="543" y="431" type="move" name="center"/>
    </contour>
  </outline>
</glyph>
<glyph name="e" format="1">
  <advance width="989"/>
  <unicode hex="0065"/>
  <outline>
    <contour>
      <point x="591" y="-23" type="curve" smooth="yes"/>
      <point x="707" y="-23"/>
      <point x="804" y="8"/>
      <point x="886" y="56" type="curve"/>
      <point x="886" y="240" type="line"/>
      <point x="823" y="198"/>
      <point x="731" y="155"/>
      <point x="605" y="155" type="curve" smooth="yes"/>
      <point x="464" y="155"/>
      <point x="337" y="217"/>
      <point x="311" y="389" type="curve"/>
      <point x="904" y="389" type="line"/>
      <point x="904" y="439" type="line" smooth="yes"/>
      <point x="904" y="678"/>
      <point x="789" y="880"/>
      <point x="516" y="880" type="curve" smooth="yes"/>
      <point x="269" y="880"/>
      <point x="89" y="684"/>
      <point x="89" y="444" type="curve" smooth="yes"/>
      <point x="89" y="131"/>
      <point x="331" y="-23"/>
    </contour>
    <contour>
      <point x="322" y="533" type="line"/>
      <point x="339" y="610"/>
      <point x="406" y="716"/>
      <point x="539" y="716" type="curve" smooth="yes"/>
      <point x="643" y="716"/>
      <point x="708" y="645"/>
      <point x="719" y="533" type="curve"/>
    </contour>
    <contour>
      <point x="495" y="863" type="move" name="top"/>
    </contour>
    <contour>
      <point x="890" y="10" type="move" name="ogonek"/>
    </contour>
    <contour>
      <point x="495" y="0" type="move" name="bottom"/>
    </contour>
  </outline>
</glyph>
<glyph name="f" format="1">
  <advance width="676"/>
  <unicode hex="0066"/>
  <outline>
    <contour>
      <point x="193" y="0" type="line"/>
      <point x="416" y="0" type="line"/>
      <point x="416" y="682" type="line"/>
      <point x="582" y="682" type="line"/>
      <point x="582" y="857" type="line"/>
      <point x="415" y="857" type="line"/>
      <point x="415" y="924" type="line" smooth="yes"/>
      <point x="415" y="1021"/>
      <point x="469" y="1050"/>
      <point x="534" y="1050" type="curve" smooth="yes"/>
      <point x="594" y="1050"/>
      <point x="663" y="1024"/>
      <point x="680" y="1020" type="curve"/>
      <point x="680" y="1212" type="line"/>
      <point x="660" y="1217"/>
      <point x="577" y="1247"/>
      <point x="496" y="1247" type="curve" smooth="yes"/>
      <point x="292" y="1247"/>
      <point x="190" y="1127"/>
      <point x="190" y="924" type="curve" smooth="yes"/>
      <point x="190" y="857" type="line"/>
      <point x="75" y="857" type="line"/>
      <point x="75" y="682" type="line"/>
      <point x="193" y="682" type="line"/>
    </contour>
  </outline>
</glyph>
<glyph name="g" format="1">
  <advance width="1097"/>
  <unicode hex="0067"/>
  <outline>
    <contour>
      <point x="578" y="-393" type="curve" smooth="yes"/>
      <point x="779" y="-393"/>
      <point x="965" y="-301"/>
      <point x="965" y="-19" type="curve" smooth="yes"/>
      <point x="965" y="857" type="line"/>
      <point x="745" y="857" type="line"/>
      <point x="745" y="800" type="line"/>
      <point x="714" y="830"/>
      <point x="606" y="879"/>
      <point x="507" y="879" type="curve" smooth="yes"/>
      <point x="266" y="879"/>
      <point x="89" y="680"/>
      <point x="89" y="435" type="curve" smooth="yes"/>
      <point x="89" y="204"/>
      <point x="246" y="-15"/>
      <point x="567" y="-15" type="curve" smooth="yes"/>
      <point x="627" y="-15"/>
      <point x="714" y="-2"/>
      <point x="759" y="15" type="curve"/>
      <point x="759" y="9"/>
      <point x="760" y="-23"/>
      <point x="760" y="-28" type="curve" smooth="yes"/>
      <point x="760" y="-153"/>
      <point x="674" y="-199"/>
      <point x="569" y="-199" type="curve" smooth="yes"/>
      <point x="428" y="-199"/>
      <point x="300" y="-150"/>
      <point x="280" y="-141" type="curve"/>
      <point x="280" y="-329" type="line"/>
      <point x="309" y="-340"/>
      <point x="425" y="-393"/>
    </contour>
    <contour>
      <point x="586" y="155" type="curve" smooth="yes"/>
      <point x="413" y="155"/>
      <point x="307" y="257"/>
      <point x="307" y="424" type="curve" smooth="yes"/>
      <point x="307" y="574"/>
      <point x="395" y="702"/>
      <point x="564" y="702" type="curve" smooth="yes"/>
      <point x="640" y="702"/>
      <point x="714" y="669"/>
      <point x="743" y="651" type="curve"/>
      <point x="743" y="174" type="line"/>
      <point x="700" y="163"/>
      <point x="642" y="155"/>
    </contour>
    <contour>
      <point x="548" y="863" type="move" name="top"/>
    </contour>
  </outline>
</glyph>
<glyph name="h" format="1">
  <advance width="1168"/>
  <unicode hex="0068"/>
  <outline>
    <contour>
      <point x="143" y="0" type="line"/>
      <point x="370" y="0" type="line"/>
      <point x="370" y="586" type="line"/>
      <point x="388" y="621"/>
      <point x="498" y="707"/>
      <point x="626" y="707" type="curve" smooth="yes"/>
      <point x="729" y="707"/>
      <point x="796" y="667"/>
      <point x="796" y="559" type="curve" smooth="yes"/>
      <point x="796" y="0" type="line"/>
      <point x="1023" y="0" type="line"/>
      <point x="1023" y="580" type="line" smooth="yes"/>
      <point x="1023" y="758"/>
      <point x="874" y="880"/>
      <point x="697" y="880" type="curve" smooth="yes"/>
      <point x="546" y="880"/>
      <point x="434" y="810"/>
      <point x="368" y="752" type="curve"/>
      <point x="368" y="1264" type="line"/>
      <point x="143" y="1232" type="line"/>
    </contour>
    <contour>
      <point x="584" y="863" type="move" name="top"/>
    </contour>
    <contour>
      <point x="584" y="431" type="move" name="center"/>
    </contour>
  </outline>
</glyph>
<glyph name="i" format="1">
  <advance width="534"/>
  <unicode hex="0069"/>
  <outline>
    <contour>
      <point x="268" y="1004" type="curve" smooth="yes"/>
      <point x="356" y="1004"/>
      <point x="407" y="1072"/>
      <point x="407" y="1141" type="curve" smooth="yes"/>
      <point x="407" y="1207"/>
      <point x="357" y="1279"/>
      <point x="268" y="1279" type="curve" smooth="yes"/>
      <point x="178" y="1279"/>
      <point x="127" y="1208"/>
      <point x="127" y="1141" type="curve" smooth="yes"/>
      <point x="127" y="1071"/>
      <point x="179" y="1004"/>
    </contour>
    <contour>
      <point x="158" y="0" type="line"/>
      <point x="379" y="0" type="line"/>
      <point x="379" y="857" type="line"/>
      <point x="158" y="857" type="line"/>
    </contour>
  </outline>
</glyph>
<glyph name="j" format="1">
  <advance width="561"/>
  <unicode hex="006A"/>
  <outline>
    <contour>
      <point x="294" y="997" type="curve" smooth="yes"/>
      <point x="382" y="997"/>
      <point x="434" y="1065"/>
      <point x="434" y="1135" type="curve" smooth="yes"/>
      <point x="434" y="1203"/>
      <point x="382" y="1271"/>
      <point x="294" y="1271" type="curve" smooth="yes"/>
      <point x="207" y="1271"/>
      <point x="153" y="1204"/>
      <point x="153" y="1135" type="curve" smooth="yes"/>
      <point x="153" y="1064"/>
      <point x="207" y="997"/>
    </contour>
    <contour>
      <point x="47" y="-339" type="line"/>
      <point x="360" y="-334"/>
      <point x="409" y="-160"/>
      <point x="409" y="-40" type="curve" smooth="yes"/>
      <point x="409" y="857" type="line"/>
      <point x="185" y="857" type="line"/>
      <point x="185" y="-18" type="line" smooth="yes"/>
      <point x="185" y="-118"/>
      <point x="119" y="-137"/>
      <point x="39" y="-151" type="curve" smooth="yes"/>
      <point x="36" y="-151"/>
      <point x="7" y="-158"/>
      <point x="3" y="-158" type="curve"/>
    </contour>
  </outline>
</glyph>
<glyph name="k" format="1">
  <advance width="1006"/>
  <unicode hex="006B"/>
  <outline>
    <contour>
      <point x="137" y="0" type="line"/>
      <point x="360" y="0" type="line"/>
      <point x="360" y="396" type="line"/>
      <point x="728" y="0" type="line"/>
      <point x="1012" y="0" type="line"/>
      <point x="580" y="459" type="line"/>
      <point x="959" y="856" type="line"/>
      <point x="682" y="856" type="line"/>
      <point x="360" y="511" type="line"/>
      <point x="360" y="1263" type="line"/>
      <point x="137" y="1234" type="line"/>
    </contour>
    <contour>
      <point x="503" y="0" type="move" name="bottom"/>
    </contour>
  </outline>
</glyph>
<glyph name="l" format="1">
  <advance width="669"/>
  <unicode hex="006C"/>
  <outline>
    <contour>
      <point x="405" y="-21" type="curve" smooth="yes"/>
      <point x="521" y="-21"/>
      <point x="590" y="10"/>
      <point x="609" y="18" type="curve"/>
      <point x="609" y="196" type="line"/>
      <point x="580" y="183"/>
      <point x="516" y="164"/>
      <point x="459" y="164" type="curve" smooth="yes"/>
      <point x="397" y="164"/>
      <point x="360" y="191"/>
      <point x="360" y="280" type="curve" smooth="yes"/>
      <point x="360" y="1264" type="line"/>
      <point x="137" y="1232" type="line"/>
      <point x="137" y="252" type="line" smooth="yes"/>
      <point x="137" y="70"/>
      <point x="263" y="-21"/>
    </contour>
    <contour>
      <point x="335" y="863" type="move" name="top"/>
    </contour>
    <contour>
      <point x="649" y="863" type="move" name="topright"/>
    </contour>
    <contour>
      <point x="335" y="0" type="move" name="bottom"/>
    </contour>
  </outline>
</glyph>
<glyph name="m" format="1">
  <advance width="1696"/>
  <unicode hex="006D"/>
  <outline>
    <contour>
      <point x="137" y="0" type="line"/>
      <point x="360" y="0" type="line"/>
      <point x="360" y="586" type="line"/>
      <point x="394" y="631"/>
      <point x="486" y="702"/>
      <point x="596" y="702" type="curve" smooth="yes"/>
      <point x="677" y="702"/>
      <point x="743" y="668"/>
      <point x="743" y="559" type="curve" smooth="yes"/>
      <point x="743" y="0" type="line"/>
      <point x="963" y="0" type="line"/>
      <point x="963" y="588" type="line"/>
      <point x="993" y="621"/>
      <point x="1088" y="702"/>
      <point x="1201" y="702" type="curve" smooth="yes"/>
      <point x="1294" y="702"/>
      <point x="1352" y="666"/>
      <point x="1352" y="552" type="curve" smooth="yes"/>
      <point x="1352" y="0" type="line"/>
      <point x="1574" y="0" type="line"/>
      <point x="1574" y="572" type="line" smooth="yes"/>
      <point x="1574" y="775"/>
      <point x="1420" y="880"/>
      <point x="1244" y="880" type="curve" smooth="yes"/>
      <point x="1130" y="880"/>
      <point x="995" y="821"/>
      <point x="916" y="740" type="curve"/>
      <point x="870" y="821"/>
      <point x="779" y="879"/>
      <point x="662" y="879" type="curve" smooth="yes"/>
      <point x="542" y="879"/>
      <point x="415" y="823"/>
      <point x="357" y="752" type="curve"/>
      <point x="357" y="857" type="line"/>
      <point x="137" y="857" type="line"/>
    </contour>
  </outline>
</glyph>
<glyph name="n" format="1">
  <advance width="1139"/>
  <unicode hex="006E"/>
  <outline>
    <contour>
      <point x="137" y="0" type="line"/>
      <point x="364" y="0" type="line"/>
      <point x="364" y="586" type="line"/>
      <point x="382" y="621"/>
      <point x="491" y="707"/>
      <point x="620" y="707" type="curve" smooth="yes"/>
      <point x="722" y="707"/>
      <point x="790" y="667"/>
      <point x="790" y="559" type="curve" smooth="yes"/>
      <point x="790" y="0" type="line"/>
      <point x="1017" y="0" type="line"/>
      <point x="1017" y="580" type="line" smooth="yes"/>
      <point x="1017" y="758"/>
      <point x="867" y="880"/>
      <point x="690" y="880" type="curve" smooth="yes"/>
      <point x="539" y="880"/>
      <point x="427" y="810"/>
      <point x="361" y="752" type="curve"/>
      <point x="361" y="857" type="line"/>
      <point x="137" y="857" type="line"/>
    </contour>
    <contour>
      <point x="570" y="863" type="move" name="top"/>
    </contour>
    <contour>
      <point x="570" y="0" type="move" name="bottom"/>
    </contour>
  </outline>
</glyph>
<glyph name="o" format="1">
  <advance width="1132"/>
  <unicode hex="006F"/>
  <outline>
    <contour>
      <point x="565" y="-22" type="curve" smooth="yes"/>
      <point x="306" y="-22"/>
      <point x="89" y="153"/>
      <point x="89" y="429" type="curve" smooth="yes"/>
      <point x="89" y="706"/>
      <point x="306" y="880"/>
      <point x="566" y="880" type="curve" smooth="yes"/>
      <point x="820" y="880"/>
      <point x="1042" y="706"/>
      <point x="1042" y="429" type="curve" smooth="yes"/>
      <point x="1042" y="153"/>
      <point x="825" y="-22"/>
    </contour>
    <contour>
      <point x="566" y="158" type="curve" smooth="yes"/>
      <point x="739" y="158"/>
      <point x="828" y="291"/>
      <point x="828" y="428" type="curve" smooth="yes"/>
      <point x="828" y="564"/>
      <point x="739" y="700"/>
      <point x="566" y="700" type="curve" smooth="yes"/>
      <point x="393" y="700"/>
      <point x="304" y="565"/>
      <point x="304" y="429" type="curve" smooth="yes"/>
      <point x="304" y="286"/>
      <point x="393" y="158"/>
    </contour>
    <contour>
      <point x="566" y="863" type="move" name="top"/>
    </contour>
  </outline>
</glyph>
<glyph name="q" format="1">
  <advance width="1085"/>
  <unicode hex="0071"/>
  <outline>
    <contour>
      <point x="725" y="-382" type="line"/>
      <point x="948" y="-382" type="line"/>
      <point x="948" y="857" type="line"/>
      <point x="725" y="857" type="line"/>
      <point x="725" y="818" type="line"/>
      <point x="680" y="849"/>
      <point x="602" y="879"/>
      <point x="518" y="879" type="curve" smooth="yes"/>
      <point x="269" y="879"/>
      <point x="89" y="706"/>
      <point x="89" y="420" type="curve" smooth="yes"/>
      <point x="89" y="159"/>
      <point x="285" y="-21"/>
      <point x="537" y="-21" type="curve" smooth="yes"/>
      <point x="623" y="-21"/>
      <point x="685" y="-8"/>
      <point x="725" y="8" type="curve"/>
    </contour>
    <contour>
      <point x="566" y="158" type="curve" smooth="yes"/>
      <point x="405" y="158"/>
      <point x="308" y="261"/>
      <point x="308" y="433" type="curve" smooth="yes"/>
      <point x="308" y="621"/>
      <point x="420" y="708"/>
      <point x="562" y="708" type="curve" smooth="yes"/>
      <point x="622" y="708"/>
      <point x="713" y="682"/>
      <point x="725" y="672" type="curve"/>
      <point x="725" y="172" type="line"/>
      <point x="725" y="172"/>
      <point x="673" y="158"/>
    </contour>
  </outline>
</glyph>
<glyph name="r" format="1">
  <advance width="803"/>
  <unicode hex="0072"/>
  <outline>
    <contour>
      <point x="137" y="0" type="line"/>
      <point x="359" y="0" type="line"/>
      <point x="359" y="382" type="line" smooth="yes"/>
      <point x="359" y="537"/>
      <point x="467" y="646"/>
      <point x="567" y="646" type="curve" smooth="yes"/>
      <point x="619" y="646"/>
      <point x="671" y="615"/>
      <point x="713" y="566" type="curve"/>
      <point x="806" y="744" type="line"/>
      <point x="736" y="822"/>
      <point x="673" y="862"/>
      <point x="603" y="862" type="curve" smooth="yes"/>
      <point x="502" y="862"/>
      <point x="384" y="705"/>
      <point x="359" y="610" type="curve"/>
      <point x="359" y="857" type="line"/>
      <point x="137" y="857" type="line"/>
    </contour>
    <contour>
      <point x="402" y="863" type="move" name="top"/>
    </contour>
    <contour>
      <point x="402" y="0" type="move" name="bottom"/>
    </contour>
  </outline>
</glyph>
<glyph name="s" format="1">
  <advance width="828"/>
  <unicode hex="0073"/>
  <outline>
    <contour>
      <point x="462" y="-22" type="curve" smooth="yes"/>
      <point x="652" y="-22"/>
      <point x="749" y="100"/>
      <point x="749" y="222" type="curve" smooth="yes"/>
      <point x="749" y="300"/>
      <point x="709" y="386"/>
      <point x="609" y="444" type="curve" smooth="yes"/>
      <point x="394" y="570" type="line" smooth="yes"/>
      <point x="357" y="590"/>
      <point x="340" y="613"/>
      <point x="340" y="646" type="curve" smooth="yes"/>
      <point x="340" y="682"/>
      <point x="375" y="713"/>
      <point x="441" y="713" type="curve" smooth="yes"/>
      <point x="539" y="713"/>
      <point x="646" y="665"/>
      <point x="678" y="650" type="curve"/>
      <point x="720" y="807" type="line"/>
      <point x="695" y="821"/>
      <point x="583" y="881"/>
      <point x="424" y="881" type="curve" smooth="yes"/>
      <point x="230" y="881"/>
      <point x="126" y="763"/>
      <point x="126" y="639" type="curve" smooth="yes"/>
      <point x="126" y="559"/>
      <point x="166" y="472"/>
      <point x="271" y="411" type="curve"/>
      <point x="476" y="294" type="line" smooth="yes"/>
      <point x="519" y="270"/>
      <point x="535" y="246"/>
      <point x="535" y="218" type="curve" smooth="yes"/>
      <point x="535" y="177"/>
      <point x="498" y="152"/>
      <point x="448" y="152" type="curve" smooth="yes"/>
      <point x="318" y="152"/>
      <point x="186" y="216"/>
      <point x="124" y="255" type="curve"/>
      <point x="102" y="85" type="line"/>
      <point x="124" y="70"/>
      <point x="252" y="-22"/>
    </contour>
    <contour>
      <point x="414" y="863" type="move" name="top"/>
    </contour>
    <contour>
      <point x="414" y="0" type="move" name="bottom"/>
    </contour>
  </outline>
</glyph>
<glyph name="t" format="1">
  <advance width="778"/>
  <unicode hex="0074"/>
  <outline>
    <contour>
      <point x="460" y="-22" type="curve" smooth="yes"/>
      <point x="614" y="-22"/>
      <point x="698" y="41"/>
      <point x="714" y="52" type="curve"/>
      <point x="714" y="219" type="line"/>
      <point x="679" y="205"/>
      <point x="589" y="162"/>
      <point x="505" y="162" type="curve" smooth="yes"/>
      <point x="445" y="162"/>
      <point x="396" y="183"/>
      <point x="396" y="265" type="curve" smooth="yes"/>
      <point x="396" y="684" type="line"/>
      <point x="669" y="684" type="line"/>
      <point x="669" y="857" type="line"/>
      <point x="396" y="857" type="line"/>
      <point x="396" y="1086" type="line"/>
      <point x="81" y="757" type="line"/>
      <point x="69" y="745"/>
      <point x="63" y="732"/>
      <point x="63" y="720" type="curve" smooth="yes"/>
      <point x="63" y="700"/>
      <point x="80" y="684"/>
      <point x="109" y="684" type="curve" smooth="yes"/>
      <point x="177" y="684" type="line"/>
      <point x="177" y="210" type="line" smooth="yes"/>
      <point x="177" y="59"/>
      <point x="316" y="-22"/>
    </contour>
    <contour>
      <point x="389" y="431" type="move" name="center"/>
    </contour>
    <contour>
      <point x="389" y="0" type="move" name="bottom"/>
    </contour>
  </outline>
</glyph>
<glyph name="u" format="1">
  <advance width="1134"/>
  <unicode hex="0075"/>
  <outline>
    <contour>
      <point x="454" y="-24" type="curve" smooth="yes"/>
      <point x="604" y="-24"/>
      <point x="708" y="52"/>
      <point x="773" y="110" type="curve"/>
      <point x="773" y="0" type="line"/>
      <point x="997" y="0" type="line"/>
      <point x="997" y="857" type="line"/>
      <point x="770" y="857" type="line"/>
      <point x="770" y="271" type="line"/>
      <point x="752" y="235"/>
      <point x="647" y="149"/>
      <point x="519" y="149" type="curve" smooth="yes"/>
      <point x="416" y="149"/>
      <point x="351" y="190"/>
      <point x="351" y="298" type="curve" smooth="yes"/>
      <point x="351" y="857" type="line"/>
      <point x="124" y="857" type="line"/>
      <point x="124" y="277" type="line" smooth="yes"/>
      <point x="124" y="100"/>
      <point x="272" y="-24"/>
    </contour>
    <contour>
      <point x="567" y="863" type="move" name="top"/>
    </contour>
    <contour>
      <point x="1021" y="10" type="move" name="ogonek"/>
    </contour>
  </outline>
</glyph>
<glyph name="v" format="1">
  <advance width="985"/>
  <unicode hex="0076"/>
  <outline>
    <contour>
      <point x="495" y="-29" type="line"/>
      <point x="959" y="857" type="line"/>
      <point x="715" y="857" type="line"/>
      <point x="495" y="372" type="line"/>
      <point x="270" y="857" type="line"/>
      <point x="26" y="857" type="line"/>
    </contour>
  </outline>
</glyph>
<glyph name="w" format="1">
  <advance width="1307"/>
  <unicode hex="0077"/>
  <outline>
    <contour>
      <point x="390" y="-18" type="line"/>
      <point x="658" y="526" type="line"/>
      <point x="924" y="-18" type="line"/>
      <point x="1280" y="857" type="line"/>
      <point x="1065" y="857" type="line"/>
      <point x="897" y="398" type="line"/>
      <point x="657" y="882" type="line"/>
      <point x="419" y="407" type="line"/>
      <point x="251" y="857" type="line"/>
      <point x="27" y="857" type="line"/>
    </contour>
    <contour>
      <point x="654" y="863" type="move" name="top"/>
    </contour>
  </outline>
</glyph>
<glyph name="x" format="1">
  <advance width="1103"/>
  <unicode hex="0078"/>
  <outline>
    <contour>
      <point x="36" y="0" type="line"/>
      <point x="313" y="0" type="line"/>
      <point x="554" y="306" type="line"/>
      <point x="808" y="0" type="line"/>
      <point x="1067" y="0" type="line"/>
      <point x="688" y="431" type="line"/>
      <point x="1054" y="857" type="line"/>
      <point x="779" y="857" type="line"/>
      <point x="546" y="566" type="line"/>
      <point x="303" y="857" type="line"/>
      <point x="42" y="857" type="line"/>
      <point x="414" y="441" type="line"/>
    </contour>
  </outline>
</glyph>
<glyph name="y" format="1">
  <advance width="985"/>
  <unicode hex="0079"/>
  <outline>
    <contour>
      <point x="163" y="-244" type="line"/>
      <point x="403" y="-244" type="line"/>
      <point x="977" y="857" type="line"/>
      <point x="734" y="857" type="line"/>
      <point x="513" y="418" type="line"/>
      <point x="263" y="857" type="line"/>
      <point x="10" y="857" type="line"/>
      <point x="391" y="221" type="line"/>
    </contour>
    <contour>
      <point x="493" y="863" type="move" name="top"/>
    </contour>
  </outline>
</glyph>
<glyph name="z" format="1">
  <advance width="896"/>
  <unicode hex="007A"/>
  <outline>
    <contour>
      <point x="72" y="0" type="line"/>
      <point x="803" y="0" type="line"/>
      <point x="803" y="173" type="line"/>
      <point x="418" y="173" type="line"/>
      <point x="833" y="857" type="line"/>
      <point x="106" y="857" type="line"/>
      <point x="106" y="689" type="line"/>
      <point x="510" y="689" type="line"/>
    </contour>
    <contour>
      <point x="448" y="863" type="move" name="top"/>
    </contour>
  </outline>
</glyph>
<glyph name="bar" format="1">
  <advance width="611"/>
  <unicode hex="007C"/>
  <outline>
    <contour>
      <point x="133" y="-110" type="line"/>
      <point x="133" y="-110"/>
      <point x="356" y="-110"/>
      <point x="356" y="-109" type="curve" smooth="yes"/>
      <point x="356" y="1264" type="line"/>
      <point x="133" y="1264" type="line"/>
    </contour>
  </outline>
</glyph>
<glyph name="asciitilde" format="1">
  <advance width="998"/>
  <unicode hex="007E"/>
  <outline>
    <contour>
      <point x="712" y="605" type="curve" smooth="yes"/>
      <point x="856" y="605"/>
      <point x="905" y="683"/>
      <point x="907" y="857" type="curve"/>
      <point x="790" y="857" type="line"/>
      <point x="781" y="788"/>
      <point x="767" y="737"/>
      <point x="708" y="737" type="curve" smooth="yes"/>
      <point x="611" y="737"/>
      <point x="446" y="871"/>
      <point x="301" y="871" type="curve" smooth="yes"/>
      <point x="161" y="871"/>
      <point x="96" y="792"/>
      <point x="93" y="619" type="curve"/>
      <point x="211" y="619" type="line"/>
      <point x="219" y="695"/>
      <point x="238" y="740"/>
      <point x="307" y="740" type="curve" smooth="yes"/>
      <point x="407" y="740"/>
      <point x="578" y="605"/>
    </contour>
  </outline>
</glyph>
<glyph name="cent" format="1">
  <advance width="953"/>
  <unicode hex="00A2"/>
  <outline>
    <contour>
      <point x="386" y="-189" type="line"/>
      <point x="471" y="-189" type="line"/>
      <point x="732" y="1031" type="line"/>
      <point x="638" y="1031" type="line"/>
    </contour>
    <component base="c"/>
  </outline>
</glyph>
<glyph name="sterling" format="1">
  <advance width="1124"/>
  <unicode hex="00A3"/>
  <outline>
    <contour>
      <point x="759" y="-30" type="curve" smooth="yes"/>
      <point x="943" y="-30"/>
      <point x="1059" y="85"/>
      <point x="1059" y="290" type="curve"/>
      <point x="865" y="290" type="line"/>
      <point x="865" y="221"/>
      <point x="832" y="156"/>
      <point x="731" y="156" type="curve" smooth="yes"/>
      <point x="654" y="156"/>
      <point x="578" y="188"/>
      <point x="526" y="236" type="curve"/>
      <point x="561" y="304"/>
      <point x="582" y="369"/>
      <point x="582" y="429" type="curve" smooth="yes"/>
      <point x="582" y="467"/>
      <point x="576" y="505"/>
      <point x="567" y="542" type="curve"/>
      <point x="802" y="542" type="line"/>
      <point x="802" y="699" type="line"/>
      <point x="510" y="699" type="line"/>
      <point x="482" y="773"/>
      <point x="454" y="843"/>
      <point x="454" y="902" type="curve" smooth="yes"/>
      <point x="454" y="1015"/>
      <point x="549" y="1079"/>
      <point x="651" y="1079" type="curve" smooth="yes"/>
      <point x="768" y="1079"/>
      <point x="832" y="1003"/>
      <point x="871" y="969" type="curve"/>
      <point x="977" y="1129" type="line"/>
      <point x="907" y="1208"/>
      <point x="767" y="1274"/>
      <point x="623" y="1274" type="curve" smooth="yes"/>
      <point x="407" y="1274"/>
      <point x="205" y="1167"/>
      <point x="205" y="923" type="curve" smooth="yes"/>
      <point x="205" y="862"/>
      <point x="236" y="783"/>
      <point x="268" y="699" type="curve"/>
      <point x="162" y="699" type="line"/>
      <point x="162" y="542" type="line"/>
      <point x="323" y="542" type="line"/>
      <point x="333" y="503"/>
      <point x="339" y="463"/>
      <point x="339" y="425" type="curve" smooth="yes"/>
      <point x="339" y="307"/>
      <point x="274" y="169"/>
      <point x="147" y="0" type="curve"/>
      <point x="372" y="0" type="line"/>
      <point x="396" y="33"/>
      <point x="418" y="64"/>
      <point x="438" y="96" type="curve"/>
      <point x="533" y="20"/>
      <point x="655" y="-30"/>
    </contour>
  </outline>
</glyph>
<glyph name="yen" format="1">
  <advance width="1243"/>
  <unicode hex="00A5"/>
  <outline>
    <contour>
      <point x="507" y="0" type="line"/>
      <point x="751" y="0" type="line"/>
      <point x="751" y="384" type="line"/>
      <point x="1056" y="384" type="line"/>
      <point x="1056" y="525" type="line"/>
      <point x="785" y="525" type="line"/>
      <point x="854" y="648" type="line"/>
      <point x="1076" y="648" type="line"/>
      <point x="1076" y="789" type="line"/>
      <point x="934" y="789" type="line"/>
      <point x="1186" y="1241" type="line"/>
      <point x="935" y="1241" type="line"/>
      <point x="630" y="666" type="line"/>
      <point x="302" y="1241" type="line"/>
      <point x="58" y="1241" type="line"/>
      <point x="320" y="789" type="line"/>
      <point x="172" y="789" type="line"/>
      <point x="172" y="648" type="line"/>
      <point x="402" y="648" type="line"/>
      <point x="474" y="525" type="line"/>
      <point x="193" y="525" type="line"/>
      <point x="193" y="384" type="line"/>
      <point x="507" y="384" type="line"/>
    </contour>
  </outline>
</glyph>
<glyph name="brokenbar" format="1">
  <advance width="611"/>
  <unicode hex="00A6"/>
  <outline>
    <contour>
      <point x="196" y="-109" type="line"/>
      <point x="196" y="-109"/>
      <point x="418" y="-110"/>
      <point x="418" y="-109" type="curve" smooth="yes"/>
      <point x="418" y="431" type="line"/>
      <point x="196" y="431" type="line"/>
    </contour>
    <contour>
      <point x="196" y="720" type="line"/>
      <point x="196" y="720"/>
      <point x="418" y="720"/>
      <point x="418" y="721" type="curve" smooth="yes"/>
      <point x="418" y="1264" type="line"/>
      <point x="196" y="1264" type="line"/>
    </contour>
  </outline>
</glyph>
<glyph name="section" format="1">
  <advance width="845"/>
  <unicode hex="00A7"/>
  <outline>
    <contour>
      <point x="470" y="-3" type="curve" smooth="yes"/>
      <point x="661" y="-3"/>
      <point x="751" y="120"/>
      <point x="751" y="242" type="curve" smooth="yes"/>
      <point x="751" y="305"/>
      <point x="717" y="370"/>
      <point x="641" y="424" type="curve"/>
      <point x="721" y="470"/>
      <point x="761" y="546"/>
      <point x="761" y="623" type="curve" smooth="yes"/>
      <point x="761" y="695"/>
      <point x="727" y="769"/>
      <point x="631" y="824" type="curve" smooth="yes"/>
      <point x="389" y="965" type="line" smooth="yes"/>
      <point x="352" y="986"/>
      <point x="336" y="1007"/>
      <point x="336" y="1038" type="curve" smooth="yes"/>
      <point x="336" y="1080"/>
      <point x="379" y="1111"/>
      <point x="446" y="1111" type="curve" smooth="yes"/>
      <point x="546" y="1111"/>
      <point x="660" y="1054"/>
      <point x="680" y="1046" type="curve" smooth="yes"/>
      <point x="722" y="1200" type="line"/>
      <point x="697" y="1213"/>
      <point x="586" y="1273"/>
      <point x="426" y="1273" type="curve" smooth="yes"/>
      <point x="232" y="1273"/>
      <point x="128" y="1155"/>
      <point x="128" y="1032" type="curve" smooth="yes"/>
      <point x="128" y="965"/>
      <point x="160" y="898"/>
      <point x="240" y="841" type="curve"/>
      <point x="159" y="794"/>
      <point x="119" y="728"/>
      <point x="119" y="657" type="curve" smooth="yes"/>
      <point x="119" y="584"/>
      <point x="159" y="509"/>
      <point x="264" y="449" type="curve"/>
      <point x="479" y="317" type="line" smooth="yes"/>
      <point x="520" y="293"/>
      <point x="537" y="271"/>
      <point x="537" y="240" type="curve" smooth="yes"/>
      <point x="537" y="194"/>
      <point x="501" y="169"/>
      <point x="446" y="169" type="curve" smooth="yes"/>
      <point x="345" y="169"/>
      <point x="160" y="248"/>
      <point x="127" y="269" type="curve"/>
      <point x="104" y="104" type="line"/>
      <point x="126" y="89"/>
      <point x="261" y="-3"/>
    </contour>
    <contour>
      <point x="525" y="497" type="curve"/>
      <point x="332" y="614" type="line" smooth="yes"/>
      <point x="294" y="635"/>
      <point x="279" y="656"/>
      <point x="279" y="687" type="curve" smooth="yes"/>
      <point x="279" y="721"/>
      <point x="310" y="752"/>
      <point x="362" y="765" type="curve"/>
      <point x="544" y="657" type="line" smooth="yes"/>
      <point x="586" y="634"/>
      <point x="602" y="609"/>
      <point x="602" y="579" type="curve" smooth="yes"/>
      <point x="602" y="541"/>
      <point x="573" y="508"/>
    </contour>
  </outline>
</glyph>
<glyph name="dieresis" format="1">
  <advance width="977"/>
  <unicode hex="00A8"/>
  <outline>
    <contour>
      <point x="703" y="41" type="curve" smooth="yes"/>
      <point x="784" y="41"/>
      <point x="830" y="104"/>
      <point x="830" y="166" type="curve" smooth="yes"/>
      <point x="830" y="227"/>
      <point x="784" y="292"/>
      <point x="703" y="292" type="curve" smooth="yes"/>
      <point x="621" y="292"/>
      <point x="574" y="228"/>
      <point x="574" y="166" type="curve" smooth="yes"/>
      <point x="574" y="103"/>
      <point x="621" y="41"/>
    </contour>
    <contour>
      <point x="275" y="41" type="curve" smooth="yes"/>
      <point x="357" y="41"/>
      <point x="402" y="104"/>
      <point x="402" y="166" type="curve" smooth="yes"/>
      <point x="402" y="227"/>
      <point x="357" y="292"/>
      <point x="275" y="292" type="curve" smooth="yes"/>
      <point x="193" y="292"/>
      <point x="147" y="228"/>
      <point x="147" y="166" type="curve" smooth="yes"/>
      <point x="147" y="103"/>
      <point x="194" y="41"/>
    </contour>
    <contour>
      <point x="488" y="863" type="move" name="_top"/>
    </contour>
  </outline>
</glyph>
<glyph name="copyright" format="1">
  <advance width="1666"/>
  <unicode hex="00A9"/>
  <outline>
    <contour>
      <point x="834" y="15" type="curve" smooth="yes"/>
      <point x="526" y="15"/>
      <point x="225" y="211"/>
      <point x="225" y="620" type="curve" smooth="yes"/>
      <point x="225" y="1028"/>
      <point x="521" y="1227"/>
      <point x="833" y="1227" type="curve" smooth="yes"/>
      <point x="1145" y="1227"/>
      <point x="1444" y="1031"/>
      <point x="1444" y="622" type="curve" smooth="yes"/>
      <point x="1444" y="211"/>
      <point x="1134" y="15"/>
    </contour>
    <contour>
      <point x="834" y="-98" type="curve" smooth="yes"/>
      <point x="1202" y="-98"/>
      <point x="1566" y="140"/>
      <point x="1566" y="624" type="curve" smooth="yes"/>
      <point x="1566" y="1101"/>
      <point x="1202" y="1340"/>
      <point x="833" y="1340" type="curve" smooth="yes"/>
      <point x="466" y="1340"/>
      <point x="102" y="1102"/>
      <point x="102" y="620" type="curve" smooth="yes"/>
      <point x="102" y="140"/>
      <point x="466" y="-98"/>
    </contour>
    <contour>
      <point x="846" y="146" type="curve" smooth="yes"/>
      <point x="988" y="146"/>
      <point x="1118" y="203"/>
      <point x="1157" y="225" type="curve"/>
      <point x="1157" y="394" type="line"/>
      <point x="1071" y="334"/>
      <point x="963" y="300"/>
      <point x="862" y="300" type="curve" smooth="yes"/>
      <point x="690" y="300"/>
      <point x="540" y="399"/>
      <point x="540" y="623" type="curve" smooth="yes"/>
      <point x="540" y="847"/>
      <point x="693" y="948"/>
      <point x="867" y="948" type="curve" smooth="yes"/>
      <point x="967" y="948"/>
      <point x="1071" y="915"/>
      <point x="1157" y="855" type="curve"/>
      <point x="1157" y="1022" type="line"/>
      <point x="1121" y="1044"/>
      <point x="993" y="1102"/>
      <point x="851" y="1102" type="curve" smooth="yes"/>
      <point x="566" y="1102"/>
      <point x="355" y="917"/>
      <point x="355" y="624" type="curve" smooth="yes"/>
      <point x="355" y="333"/>
      <point x="568" y="146"/>
    </contour>
  </outline>
</glyph>
<glyph name="guillemotleft" format="1">
  <advance width="897"/>
  <unicode hex="00AB"/>
  <outline>
    <contour>
      <point x="792" y="171" type="curve" smooth="yes"/>
      <point x="813" y="171"/>
      <point x="827" y="186"/>
      <point x="827" y="203" type="curve" smooth="yes"/>
      <point x="827" y="214"/>
      <point x="821" y="226"/>
      <point x="809" y="238" type="curve"/>
      <point x="613" y="516" type="line"/>
      <point x="809" y="793" type="line"/>
      <point x="821" y="806"/>
      <point x="827" y="817"/>
      <point x="827" y="829" type="curve" smooth="yes"/>
      <point x="827" y="846"/>
      <point x="813" y="860"/>
      <point x="792" y="860" type="curve" smooth="yes"/>
      <point x="784" y="860"/>
      <point x="775" y="859"/>
      <point x="765" y="854" type="curve"/>
      <point x="474" y="625" type="line"/>
      <point x="429" y="596"/>
      <point x="405" y="556"/>
      <point x="405" y="516" type="curve" smooth="yes"/>
      <point x="405" y="476"/>
      <point x="428" y="436"/>
      <point x="474" y="407" type="curve"/>
      <point x="765" y="178" type="line"/>
      <point x="775" y="173"/>
      <point x="784" y="171"/>
    </contour>
    <contour>
      <point x="448" y="171" type="curve" smooth="yes"/>
      <point x="469" y="171"/>
      <point x="484" y="186"/>
      <point x="484" y="203" type="curve" smooth="yes"/>
      <point x="484" y="214"/>
      <point x="477" y="226"/>
      <point x="465" y="238" type="curve"/>
      <point x="270" y="516" type="line"/>
      <point x="465" y="793" type="line"/>
      <point x="477" y="806"/>
      <point x="484" y="817"/>
      <point x="484" y="829" type="curve" smooth="yes"/>
      <point x="484" y="846"/>
      <point x="469" y="860"/>
      <point x="448" y="860" type="curve" smooth="yes"/>
      <point x="441" y="860"/>
      <point x="431" y="859"/>
      <point x="421" y="854" type="curve"/>
      <point x="131" y="625" type="line"/>
      <point x="85" y="596"/>
      <point x="61" y="556"/>
      <point x="61" y="516" type="curve" smooth="yes"/>
      <point x="61" y="476"/>
      <point x="84" y="436"/>
      <point x="131" y="407" type="curve"/>
      <point x="421" y="178" type="line"/>
      <point x="431" y="173"/>
      <point x="441" y="171"/>
    </contour>
  </outline>
</glyph>
<glyph name="logicalnot" format="1">
  <advance width="968"/>
  <unicode hex="00AC"/>
  <outline>
    <contour>
      <point x="672" y="349" type="line"/>
      <point x="831" y="349" type="line"/>
      <point x="831" y="824" type="line"/>
      <point x="117" y="824" type="line"/>
      <point x="117" y="665" type="line"/>
      <point x="672" y="665" type="line"/>
    </contour>
  </outline>
</glyph>
<glyph name="uni00AD" format="1">
  <advance width="1020"/>
  <unicode hex="00AD"/>
  <outline>
    <contour>
      <point x="153" y="665" type="line"/>
      <point x="866" y="665" type="line"/>
      <point x="867" y="824" type="line"/>
      <point x="153" y="824" type="line"/>
    </contour>
  </outline>
</glyph>
<glyph name="registered" format="1">
  <advance width="1691"/>
  <unicode hex="00AE"/>
  <outline>
    <contour>
      <point x="545" y="168" type="line"/>
      <point x="720" y="168" type="line"/>
      <point x="720" y="560" type="line"/>
      <point x="733" y="560" type="line"/>
      <point x="991" y="168" type="line"/>
      <point x="1198" y="168" type="line"/>
      <point x="905" y="584" type="line"/>
      <point x="1053" y="607"/>
      <point x="1144" y="685"/>
      <point x="1144" y="816" type="curve" smooth="yes"/>
      <point x="1144" y="997"/>
      <point x="991" y="1072"/>
      <point x="792" y="1072" type="curve" smooth="yes"/>
      <point x="545" y="1072" type="line"/>
    </contour>
    <contour>
      <point x="720" y="661" type="line"/>
      <point x="720" y="952" type="line"/>
      <point x="772" y="952" type="line" smooth="yes"/>
      <point x="914" y="952"/>
      <point x="976" y="901"/>
      <point x="976" y="812" type="curve" smooth="yes"/>
      <point x="976" y="706"/>
      <point x="879" y="661"/>
      <point x="762" y="661" type="curve" smooth="yes"/>
    </contour>
    <contour>
      <point x="847" y="8" type="curve" smooth="yes"/>
      <point x="539" y="8"/>
      <point x="238" y="211"/>
      <point x="238" y="620" type="curve" smooth="yes"/>
      <point x="238" y="1028"/>
      <point x="534" y="1233"/>
      <point x="846" y="1233" type="curve" smooth="yes"/>
      <point x="1158" y="1233"/>
      <point x="1457" y="1031"/>
      <point x="1457" y="622" type="curve" smooth="yes"/>
      <point x="1457" y="211"/>
      <point x="1147" y="8"/>
    </contour>
    <contour>
      <point x="847" y="-98" type="curve" smooth="yes"/>
      <point x="1214" y="-98"/>
      <point x="1592" y="140"/>
      <point x="1592" y="624" type="curve" smooth="yes"/>
      <point x="1592" y="1101"/>
      <point x="1214" y="1340"/>
      <point x="846" y="1340" type="curve" smooth="yes"/>
      <point x="479" y="1340"/>
      <point x="102" y="1102"/>
      <point x="102" y="620" type="curve" smooth="yes"/>
      <point x="102" y="140"/>
      <point x="479" y="-98"/>
    </contour>
  </outline>
</glyph>
<glyph name="macron" format="1">
  <advance width="1137"/>
  <unicode hex="00AF"/>
  <outline>
    <component base="minus" xOffset="-42"/>
    <contour>
      <point x="58" y="863" type="move" name="_top"/>
    </contour>
  </outline>
</glyph>
<glyph name="plusminus" format="1">
  <advance width="1135"/>
  <unicode hex="00B1"/>
  <outline>
    <contour>
      <point x="482" y="361" type="line"/>
      <point x="623" y="361" type="line"/>
      <point x="623" y="648" type="line"/>
      <point x="911" y="648" type="line"/>
      <point x="911" y="789" type="line"/>
      <point x="623" y="789" type="line"/>
      <point x="623" y="1077" type="line"/>
      <point x="482" y="1077" type="line"/>
      <point x="482" y="789" type="line"/>
      <point x="195" y="789" type="line"/>
      <point x="195" y="648" type="line"/>
      <point x="482" y="648" type="line"/>
    </contour>
    <contour>
      <point x="195" y="57" type="line"/>
      <point x="911" y="57" type="line"/>
      <point x="911" y="198" type="line"/>
      <point x="195" y="198" type="line"/>
    </contour>
  </outline>
</glyph>
<glyph name="acute" format="1">
  <advance width="496"/>
  <unicode hex="00B4"/>
  <outline>
    <contour>
      <point x="101" y="99" type="curve" smooth="yes"/>
      <point x="112" y="99"/>
      <point x="123" y="104"/>
      <point x="134" y="116" type="curve" smooth="yes"/>
      <point x="386" y="396" type="line" smooth="yes"/>
      <point x="413" y="425"/>
      <point x="424" y="454"/>
      <point x="424" y="479" type="curve" smooth="yes"/>
      <point x="424" y="527"/>
      <point x="385" y="564"/>
      <point x="340" y="564" type="curve" smooth="yes"/>
      <point x="305" y="564"/>
      <point x="265" y="541"/>
      <point x="238" y="484" type="curve" smooth="yes"/>
      <point x="77" y="157" type="line" smooth="yes"/>
      <point x="73" y="148"/>
      <point x="71" y="140"/>
      <point x="71" y="132" type="curve" smooth="yes"/>
      <point x="71" y="112"/>
      <point x="84" y="99"/>
    </contour>
    <contour>
      <point x="247" y="863" type="move" name="_top"/>
    </contour>
  </outline>
</glyph>
<glyph name="paragraph" format="1">
  <advance width="1066"/>
  <unicode hex="00B6"/>
  <outline>
    <contour>
      <point x="542" y="1" type="line"/>
      <point x="685" y="1" type="line"/>
      <point x="685" y="1109" type="line"/>
      <point x="792" y="1109" type="line"/>
      <point x="791" y="1" type="line"/>
      <point x="934" y="1" type="line"/>
      <point x="934" y="1241" type="line"/>
      <point x="554" y="1241" type="line" smooth="yes"/>
      <point x="292" y="1241"/>
      <point x="100" y="1208"/>
      <point x="100" y="922" type="curve" smooth="yes"/>
      <point x="100" y="665"/>
      <point x="295" y="598"/>
      <point x="507" y="596" type="curve" smooth="yes"/>
      <point x="553" y="596"/>
      <point x="539" y="596"/>
      <point x="542" y="596" type="curve"/>
    </contour>
  </outline>
</glyph>
<glyph name="cedilla" format="1">
  <advance width="472"/>
  <unicode hex="00B8"/>
  <outline>
    <contour>
      <point x="350" y="-357" type="curve"/>
      <point x="362" y="-294" type="line"/>
      <point x="294" y="-279"/>
      <point x="232" y="-227"/>
      <point x="232" y="-182" type="curve" smooth="yes"/>
      <point x="232" y="-152"/>
      <point x="259" y="-126"/>
      <point x="329" y="-117" type="curve"/>
      <point x="329" y="0" type="line"/>
      <point x="251" y="0" type="line"/>
      <point x="251" y="-71" type="line"/>
      <point x="149" y="-100"/>
      <point x="115" y="-149"/>
      <point x="115" y="-199" type="curve" smooth="yes"/>
      <point x="115" y="-277"/>
      <point x="227" y="-357"/>
    </contour>
    <contour>
      <point x="239" y="0" type="move" name="_bottom"/>
    </contour>
  </outline>
</glyph>
<glyph name="questiondown" format="1">
  <advance width="1022"/>
  <unicode hex="00BF"/>
  <outline>
    <contour>
      <point x="504" y="-408" type="curve" smooth="yes"/>
      <point x="674" y="-408"/>
      <point x="846" y="-304"/>
      <point x="868" y="-285" type="curve"/>
      <point x="788" y="-114" type="line"/>
      <point x="762" y="-134"/>
      <point x="633" y="-203"/>
      <point x="529" y="-203" type="curve" smooth="yes"/>
      <point x="438" y="-203"/>
      <point x="368" y="-152"/>
      <point x="368" y="-49" type="curve" smooth="yes"/>
      <point x="368" y="59"/>
      <point x="430" y="146"/>
      <point x="723" y="477" type="curve"/>
      <point x="547" y="477" type="line"/>
      <point x="241" y="214"/>
      <point x="128" y="74"/>
      <point x="128" y="-81" type="curve" smooth="yes"/>
      <point x="128" y="-283"/>
      <point x="275" y="-408"/>
    </contour>
    <component base="period" xOffset="913" yOffset="867" xScale="-1" yScale="-1"/>
  </outline>
</glyph>
<glyph name="AE" format="1">
  <advance width="1368"/>
  <unicode hex="00C6"/>
  <outline>
    <contour>
      <point x="70" y="0" type="line"/>
      <point x="325" y="0" type="line"/>
      <point x="450" y="293" type="line"/>
      <point x="709" y="293" type="line"/>
      <point x="710" y="126" type="line"/>
      <point x="851" y="126" type="line"/>
      <point x="653" y="1241" type="line"/>
    </contour>
    <contour>
      <point x="498" y="445" type="line"/>
      <point x="654" y="828" type="line"/>
      <point x="737" y="445" type="line"/>
    </contour>
    <component base="E" xOffset="493"/>
    <contour>
      <point x="684" y="1241" type="move" name="top"/>
    </contour>
  </outline>
</glyph>
<glyph name="multiply" format="1">
  <advance width="907"/>
  <unicode hex="00D7"/>
  <outline>
    <contour>
      <point x="303" y="297" type="line"/>
      <point x="471" y="465" type="line"/>
      <point x="639" y="297" type="line"/>
      <point x="751" y="409" type="line"/>
      <point x="583" y="577" type="line"/>
      <point x="751" y="745" type="line"/>
      <point x="639" y="857" type="line"/>
      <point x="471" y="689" type="line"/>
      <point x="303" y="857" type="line"/>
      <point x="191" y="745" type="line"/>
      <point x="359" y="577" type="line"/>
      <point x="191" y="409" type="line"/>
    </contour>
  </outline>
</glyph>
<glyph name="Oslash" format="1">
  <advance width="1533"/>
  <unicode hex="00D8"/>
  <outline>
    <contour>
      <point x="359" y="-98" type="line"/>
      <point x="1263" y="1280" type="line"/>
      <point x="1170" y="1338" type="line"/>
      <point x="266" y="-40" type="line"/>
    </contour>
    <component base="O"/>
    <contour>
      <point x="767" y="1241" type="move" name="top"/>
    </contour>
  </outline>
</glyph>
<glyph name="Thorn" format="1">
  <advance width="1063"/>
  <unicode hex="00DE"/>
  <outline>
    <contour>
      <point x="166" y="0" type="line"/>
      <point x="406" y="0" type="line"/>
      <point x="406" y="287" type="line"/>
      <point x="485" y="287" type="line" smooth="yes"/>
      <point x="685" y="287"/>
      <point x="989" y="321"/>
      <point x="989" y="652" type="curve" smooth="yes"/>
      <point x="989" y="905"/>
      <point x="801" y="1023"/>
      <point x="516" y="1023" type="curve" smooth="yes"/>
      <point x="405" y="1023" type="line"/>
      <point x="405" y="1241" type="line"/>
      <point x="166" y="1241" type="line"/>
    </contour>
    <contour>
      <point x="405" y="425" type="line"/>
      <point x="405" y="862" type="line"/>
      <point x="488" y="862" type="line" smooth="yes"/>
      <point x="689" y="862"/>
      <point x="761" y="767"/>
      <point x="761" y="647" type="curve" smooth="yes"/>
      <point x="761" y="505"/>
      <point x="664" y="425"/>
      <point x="500" y="425" type="curve" smooth="yes"/>
    </contour>
  </outline>
</glyph>
<glyph name="germandbls" format="1">
  <advance width="1099"/>
  <unicode hex="00DF"/>
  <outline>
    <contour>
      <point x="694" y="-33" type="curve" smooth="yes"/>
      <point x="887" y="-33"/>
      <point x="1038" y="55"/>
      <point x="1038" y="292" type="curve" smooth="yes"/>
      <point x="1038" y="418"/>
      <point x="1012" y="527"/>
      <point x="731" y="676" type="curve"/>
      <point x="877" y="726"/>
      <point x="918" y="832"/>
      <point x="918" y="924" type="curve" smooth="yes"/>
      <point x="918" y="1112"/>
      <point x="771" y="1241"/>
      <point x="512" y="1241" type="curve" smooth="yes"/>
      <point x="275" y="1241"/>
      <point x="130" y="1081"/>
      <point x="130" y="905" type="curve" smooth="yes"/>
      <point x="130" y="0" type="line"/>
      <point x="368" y="0" type="line"/>
      <point x="368" y="907" type="line" smooth="yes"/>
      <point x="368" y="992"/>
      <point x="424" y="1071"/>
      <point x="539" y="1071" type="curve" smooth="yes"/>
      <point x="646" y="1071"/>
      <point x="715" y="1015"/>
      <point x="715" y="912" type="curve" smooth="yes"/>
      <point x="715" y="774"/>
      <point x="602" y="750"/>
      <point x="495" y="749" type="curve"/>
      <point x="495" y="590" type="line"/>
      <point x="693" y="479" type="line"/>
      <point x="807" y="413"/>
      <point x="820" y="361"/>
      <point x="820" y="299" type="curve" smooth="yes"/>
      <point x="820" y="208"/>
      <point x="764" y="162"/>
      <point x="657" y="162" type="curve" smooth="yes"/>
      <point x="559" y="162"/>
      <point x="446" y="214"/>
      <point x="446" y="214" type="curve"/>
      <point x="446" y="20" type="line"/>
      <point x="446" y="20"/>
      <point x="535" y="-33"/>
    </contour>
  </outline>
</glyph>
<glyph name="ae" format="1">
  <advance width="1514"/>
  <unicode hex="00E6"/>
  <outline>
    <contour>
      <point x="360" y="-22" type="curve" smooth="yes"/>
      <point x="490" y="-22"/>
      <point x="601" y="46"/>
      <point x="683" y="130" type="curve"/>
      <point x="772" y="28"/>
      <point x="908" y="-23"/>
      <point x="1057" y="-23" type="curve" smooth="yes"/>
      <point x="1173" y="-23"/>
      <point x="1259" y="8"/>
      <point x="1341" y="56" type="curve"/>
      <point x="1341" y="240" type="line"/>
      <point x="1278" y="198"/>
      <point x="1197" y="155"/>
      <point x="1071" y="155" type="curve" smooth="yes"/>
      <point x="930" y="155"/>
      <point x="822" y="217"/>
      <point x="796" y="389" type="curve"/>
      <point x="1359" y="389" type="line"/>
      <point x="1359" y="439" type="line" smooth="yes"/>
      <point x="1359" y="678"/>
      <point x="1255" y="880"/>
      <point x="982" y="880" type="curve" smooth="yes"/>
      <point x="874" y="880"/>
      <point x="766" y="835"/>
      <point x="701" y="758" type="curve"/>
      <point x="644" y="846"/>
      <point x="547" y="881"/>
      <point x="454" y="881" type="curve" smooth="yes"/>
      <point x="268" y="881"/>
      <point x="134" y="798"/>
      <point x="109" y="782" type="curve"/>
      <point x="171" y="613" type="line"/>
      <point x="219" y="639"/>
      <point x="332" y="700"/>
      <point x="425" y="700" type="curve" smooth="yes"/>
      <point x="496" y="700"/>
      <point x="574" y="675"/>
      <point x="574" y="548" type="curve" smooth="yes"/>
      <point x="574" y="519" type="line"/>
      <point x="439" y="490" type="line"/>
      <point x="187" y="432"/>
      <point x="104" y="320"/>
      <point x="104" y="217" type="curve" smooth="yes"/>
      <point x="104" y="67"/>
      <point x="223" y="-22"/>
    </contour>
    <contour>
      <point x="411" y="129" type="curve" smooth="yes"/>
      <point x="358" y="129"/>
      <point x="322" y="172"/>
      <point x="322" y="230" type="curve" smooth="yes"/>
      <point x="322" y="276"/>
      <point x="349" y="333"/>
      <point x="452" y="374" type="curve" smooth="yes"/>
      <point x="464" y="381"/>
      <point x="559" y="405"/>
      <point x="576" y="410" type="curve"/>
      <point x="579" y="341"/>
      <point x="594" y="279"/>
      <point x="619" y="225" type="curve"/>
      <point x="570" y="182"/>
      <point x="484" y="129"/>
    </contour>
    <contour>
      <point x="807" y="533" type="line"/>
      <point x="824" y="610"/>
      <point x="871" y="716"/>
      <point x="1005" y="716" type="curve" smooth="yes"/>
      <point x="1109" y="716"/>
      <point x="1163" y="645"/>
      <point x="1174" y="533" type="curve"/>
    </contour>
    <contour>
      <point x="757" y="863" type="move" name="top"/>
    </contour>
  </outline>
</glyph>
<glyph name="eth" format="1">
  <advance width="1032"/>
  <unicode hex="00F0"/>
  <outline>
    <contour>
      <point x="506" y="-22" type="curve" smooth="yes"/>
      <point x="765" y="-22"/>
      <point x="955" y="160"/>
      <point x="955" y="390" type="curve" smooth="yes"/>
      <point x="955" y="554"/>
      <point x="891" y="667"/>
      <point x="772" y="834" type="curve" smooth="yes"/>
      <point x="696" y="939"/>
      <point x="437" y="1241"/>
      <point x="437" y="1241" type="curve"/>
      <point x="189" y="1241" type="line"/>
      <point x="571" y="771" type="line"/>
      <point x="547" y="781"/>
      <point x="502" y="794"/>
      <point x="456" y="794" type="curve" smooth="yes"/>
      <point x="251" y="794"/>
      <point x="58" y="629"/>
      <point x="58" y="391" type="curve" smooth="yes"/>
      <point x="58" y="144"/>
      <point x="260" y="-22"/>
    </contour>
    <contour>
      <point x="512" y="158" type="curve" smooth="yes"/>
      <point x="369" y="158"/>
      <point x="274" y="269"/>
      <point x="274" y="391" type="curve" smooth="yes"/>
      <point x="274" y="519"/>
      <point x="366" y="624"/>
      <point x="506" y="624" type="curve" smooth="yes"/>
      <point x="655" y="624"/>
      <point x="735" y="505"/>
      <point x="735" y="384" type="curve" smooth="yes"/>
      <point x="735" y="268"/>
      <point x="656" y="158"/>
    </contour>
    <contour>
      <point x="279" y="871" type="line"/>
      <point x="731" y="1183" type="line"/>
      <point x="680" y="1247" type="line"/>
      <point x="228" y="935" type="line"/>
    </contour>
  </outline>
</glyph>
<glyph name="oslash" format="1">
  <advance width="1146"/>
  <unicode hex="00F8"/>
  <outline>
    <contour>
      <point x="271" y="-92" type="line"/>
      <point x="203" y="-45" type="line"/>
      <point x="873" y="947" type="line"/>
      <point x="941" y="900" type="line"/>
    </contour>
    <component base="o"/>
    <contour>
      <point x="573" y="863" type="move" name="top"/>
    </contour>
  </outline>
</glyph>
<glyph name="thorn" format="1">
  <advance width="1085"/>
  <unicode hex="00FE"/>
  <outline>
    <contour>
      <point x="137" y="-383" type="line"/>
      <point x="360" y="-375" type="line"/>
      <point x="360" y="12" type="line"/>
      <point x="360" y="12"/>
      <point x="438" y="-13"/>
      <point x="539" y="-13" type="curve" smooth="yes"/>
      <point x="824" y="-13"/>
      <point x="996" y="172"/>
      <point x="996" y="436" type="curve" smooth="yes"/>
      <point x="996" y="687"/>
      <point x="840" y="882"/>
      <point x="598" y="882" type="curve" smooth="yes"/>
      <point x="489" y="882"/>
      <point x="409" y="845"/>
      <point x="360" y="801" type="curve"/>
      <point x="360" y="1241" type="line"/>
      <point x="137" y="1241" type="line"/>
    </contour>
    <contour>
      <point x="501" y="152" type="curve" smooth="yes"/>
      <point x="435" y="152"/>
      <point x="380" y="169"/>
      <point x="360" y="172" type="curve"/>
      <point x="360" y="647" type="line"/>
      <point x="397" y="666"/>
      <point x="464" y="703"/>
      <point x="538" y="703" type="curve" smooth="yes"/>
      <point x="685" y="703"/>
      <point x="777" y="604"/>
      <point x="777" y="438" type="curve" smooth="yes"/>
      <point x="777" y="262"/>
      <point x="684" y="152"/>
    </contour>
  </outline>
</glyph>
<glyph name="dotlessi" format="1">
  <advance width="534"/>
  <unicode hex="0131"/>
  <outline>
    <contour>
      <point x="158" y="0" type="line"/>
      <point x="379" y="0" type="line"/>
      <point x="379" y="857" type="line"/>
      <point x="158" y="857" type="line"/>
    </contour>
    <contour>
      <point x="267" y="863" type="move" name="top"/>
    </contour>
    <contour>
      <point x="481" y="10" type="move" name="ogonek"/>
    </contour>
  </outline>
</glyph>
<glyph name="kgreenlandic" format="1">
  <advance width="1006"/>
  <unicode hex="0138"/>
  <outline>
    <contour>
      <point x="137" y="0" type="line"/>
      <point x="360" y="0" type="line"/>
      <point x="360" y="379" type="line"/>
      <point x="728" y="0" type="line"/>
      <point x="1012" y="0" type="line"/>
      <point x="583" y="440" type="line"/>
      <point x="959" y="856" type="line"/>
      <point x="682" y="856" type="line"/>
      <point x="360" y="491" type="line"/>
      <point x="360" y="856" type="line"/>
      <point x="137" y="856" type="line"/>
    </contour>
  </outline>
</glyph>
<glyph name="OE" format="1">
  <advance width="1982"/>
  <unicode hex="0152"/>
  <outline>
    <contour>
      <point x="737" y="-33" type="curve" smooth="yes"/>
      <point x="910" y="-33"/>
      <point x="1065" y="26"/>
      <point x="1169" y="146" type="curve"/>
      <point x="1169" y="0" type="line"/>
      <point x="1901" y="0" type="line"/>
      <point x="1901" y="209" type="line"/>
      <point x="1401" y="209" type="line"/>
      <point x="1401" y="539" type="line"/>
      <point x="1826" y="539" type="line"/>
      <point x="1826" y="739" type="line"/>
      <point x="1403" y="739" type="line"/>
      <point x="1403" y="1039" type="line"/>
      <point x="1891" y="1039" type="line"/>
      <point x="1891" y="1241" type="line"/>
      <point x="1169" y="1241" type="line"/>
      <point x="1169" y="1097" type="line"/>
      <point x="1064" y="1216"/>
      <point x="910" y="1275"/>
      <point x="736" y="1275" type="curve" smooth="yes"/>
      <point x="402" y="1275"/>
      <point x="83" y="1058"/>
      <point x="83" y="620" type="curve" smooth="yes"/>
      <point x="83" y="184"/>
      <point x="402" y="-33"/>
    </contour>
    <contour>
      <point x="748" y="171" type="curve" smooth="yes"/>
      <point x="536" y="171"/>
      <point x="329" y="320"/>
      <point x="329" y="620" type="curve" smooth="yes"/>
      <point x="329" y="920"/>
      <point x="531" y="1071"/>
      <point x="748" y="1071" type="curve" smooth="yes"/>
      <point x="964" y="1071"/>
      <point x="1169" y="920"/>
      <point x="1169" y="619" type="curve" smooth="yes"/>
      <point x="1169" y="321"/>
      <point x="954" y="171"/>
    </contour>
    <contour>
      <point x="991" y="1241" type="move" name="top"/>
    </contour>
  </outline>
</glyph>
<glyph name="oe" format="1">
  <advance width="1726"/>
  <unicode hex="0153"/>
  <outline>
    <contour>
      <point x="1059" y="533" type="line"/>
      <point x="1076" y="610"/>
      <point x="1142" y="716"/>
      <point x="1276" y="716" type="curve" smooth="yes"/>
      <point x="1379" y="716"/>
      <point x="1445" y="645"/>
      <point x="1456" y="533" type="curve"/>
    </contour>
    <contour>
      <point x="560" y="-22" type="curve" smooth="yes"/>
      <point x="723" y="-22"/>
      <point x="859" y="47"/>
      <point x="933" y="166" type="curve"/>
      <point x="1017" y="40"/>
      <point x="1162" y="-23"/>
      <point x="1328" y="-23" type="curve" smooth="yes"/>
      <point x="1444" y="-23"/>
      <point x="1541" y="8"/>
      <point x="1622" y="56" type="curve"/>
      <point x="1622" y="240" type="line"/>
      <point x="1559" y="198"/>
      <point x="1468" y="155"/>
      <point x="1342" y="155" type="curve" smooth="yes"/>
      <point x="1201" y="155"/>
      <point x="1074" y="217"/>
      <point x="1048" y="389" type="curve"/>
      <point x="1641" y="389" type="line"/>
      <point x="1641" y="439" type="line" smooth="yes"/>
      <point x="1641" y="678"/>
      <point x="1526" y="880"/>
      <point x="1253" y="880" type="curve" smooth="yes"/>
      <point x="1106" y="880"/>
      <point x="992" y="811"/>
      <point x="926" y="702" type="curve"/>
      <point x="849" y="816"/>
      <point x="715" y="880"/>
      <point x="561" y="880" type="curve" smooth="yes"/>
      <point x="301" y="880"/>
      <point x="89" y="706"/>
      <point x="89" y="429" type="curve" smooth="yes"/>
      <point x="89" y="153"/>
      <point x="301" y="-22"/>
    </contour>
    <contour>
      <point x="566" y="158" type="curve" smooth="yes"/>
      <point x="393" y="158"/>
      <point x="304" y="286"/>
      <point x="304" y="429" type="curve" smooth="yes"/>
      <point x="304" y="565"/>
      <point x="393" y="700"/>
      <point x="566" y="700" type="curve" smooth="yes"/>
      <point x="739" y="700"/>
      <point x="826" y="564"/>
      <point x="826" y="428" type="curve" smooth="yes"/>
      <point x="826" y="291"/>
      <point x="739" y="158"/>
    </contour>
    <contour>
      <point x="863" y="863" type="move" name="top"/>
    </contour>
  </outline>
</glyph>
<glyph name="florin" format="1">
  <advance width="1005"/>
  <unicode hex="0192"/>
  <outline>
    <contour>
      <point x="267" y="-322" type="curve" smooth="yes"/>
      <point x="438" y="-322"/>
      <point x="548" y="-211"/>
      <point x="569" y="0" type="curve" smooth="yes"/>
      <point x="631" y="623" type="line"/>
      <point x="824" y="623" type="line"/>
      <point x="836" y="753" type="line"/>
      <point x="645" y="753" type="line"/>
      <point x="660" y="924" type="line" smooth="yes"/>
      <point x="670" y="1042"/>
      <point x="735" y="1077"/>
      <point x="812" y="1077" type="curve" smooth="yes"/>
      <point x="854" y="1077"/>
      <point x="886" y="1068"/>
      <point x="923" y="1055" type="curve"/>
      <point x="939" y="1213" type="line"/>
      <point x="920" y="1218"/>
      <point x="848" y="1247"/>
      <point x="767" y="1247" type="curve" smooth="yes"/>
      <point x="562" y="1247"/>
      <point x="453" y="1127"/>
      <point x="435" y="924" type="curve" smooth="yes"/>
      <point x="420" y="753" type="line"/>
      <point x="264" y="753" type="line"/>
      <point x="253" y="623" type="line"/>
      <point x="408" y="623" type="line"/>
      <point x="345" y="-13" type="line" smooth="yes"/>
      <point x="335" y="-124"/>
      <point x="282" y="-157"/>
      <point x="215" y="-157" type="curve" smooth="yes"/>
      <point x="158" y="-157"/>
      <point x="106" y="-132"/>
      <point x="82" y="-123" type="curve"/>
      <point x="66" y="-275" type="line"/>
      <point x="141" y="-307"/>
      <point x="203" y="-322"/>
    </contour>
  </outline>
</glyph>
<glyph name="uni0237" format="1">
  <advance width="561"/>
  <unicode hex="0237"/>
  <outline>
    <contour>
      <point x="47" y="-339" type="line"/>
      <point x="360" y="-334"/>
      <point x="409" y="-160"/>
      <point x="409" y="-40" type="curve" smooth="yes"/>
      <point x="409" y="857" type="line"/>
      <point x="185" y="857" type="line"/>
      <point x="185" y="-18" type="line" smooth="yes"/>
      <point x="185" y="-118"/>
      <point x="119" y="-137"/>
      <point x="39" y="-151" type="curve" smooth="yes"/>
      <point x="36" y="-151"/>
      <point x="7" y="-158"/>
      <point x="3" y="-158" type="curve"/>
    </contour>
    <contour>
      <point x="281" y="863" type="move" name="top"/>
    </contour>
  </outline>
</glyph>
<glyph name="circumflex" format="1">
  <advance width="817"/>
  <unicode hex="02C6"/>
  <outline>
    <contour>
      <point x="169" y="110" type="curve" smooth="yes"/>
      <point x="180" y="110"/>
      <point x="191" y="115"/>
      <point x="202" y="127" type="curve" smooth="yes"/>
      <point x="408" y="356" type="line"/>
      <point x="614" y="127" type="line" smooth="yes"/>
      <point x="625" y="115"/>
      <point x="636" y="110"/>
      <point x="647" y="110" type="curve" smooth="yes"/>
      <point x="663" y="110"/>
      <point x="677" y="123"/>
      <point x="677" y="143" type="curve" smooth="yes"/>
      <point x="677" y="150"/>
      <point x="675" y="159"/>
      <point x="671" y="168" type="curve" smooth="yes"/>
      <point x="510" y="495" type="line" smooth="yes"/>
      <point x="485" y="547"/>
      <point x="448" y="574"/>
      <point x="408" y="574" type="curve" smooth="yes"/>
      <point x="368" y="574"/>
      <point x="331" y="547"/>
      <point x="306" y="495" type="curve" smooth="yes"/>
      <point x="145" y="168" type="line" smooth="yes"/>
      <point x="141" y="159"/>
      <point x="139" y="150"/>
      <point x="139" y="143" type="curve" smooth="yes"/>
      <point x="139" y="123"/>
      <point x="152" y="110"/>
    </contour>
    <contour>
      <point x="408" y="863" type="move" name="_top"/>
    </contour>
  </outline>
</glyph>
<glyph name="caron" format="1">
  <advance width="817"/>
  <unicode hex="02C7"/>
  <outline>
    <contour>
      <point x="408" y="114" type="curve" smooth="yes"/>
      <point x="448" y="114"/>
      <point x="485" y="141"/>
      <point x="510" y="193" type="curve" smooth="yes"/>
      <point x="671" y="520" type="line" smooth="yes"/>
      <point x="675" y="529"/>
      <point x="677" y="538"/>
      <point x="677" y="545" type="curve" smooth="yes"/>
      <point x="677" y="565"/>
      <point x="663" y="578"/>
      <point x="647" y="578" type="curve" smooth="yes"/>
      <point x="636" y="578"/>
      <point x="625" y="573"/>
      <point x="614" y="561" type="curve" smooth="yes"/>
      <point x="408" y="332" type="line"/>
      <point x="202" y="561" type="line" smooth="yes"/>
      <point x="191" y="573"/>
      <point x="180" y="578"/>
      <point x="169" y="578" type="curve" smooth="yes"/>
      <point x="152" y="578"/>
      <point x="139" y="565"/>
      <point x="139" y="545" type="curve" smooth="yes"/>
      <point x="139" y="538"/>
      <point x="141" y="529"/>
      <point x="145" y="520" type="curve" smooth="yes"/>
      <point x="306" y="193" type="line" smooth="yes"/>
      <point x="331" y="141"/>
      <point x="368" y="114"/>
    </contour>
    <contour>
      <point x="408" y="863" type="move" name="_top"/>
    </contour>
  </outline>
</glyph>
<glyph name="breve" format="1">
  <advance width="776"/>
  <unicode hex="02D8"/>
  <outline>
    <contour>
      <point x="388" y="130" type="curve" smooth="yes"/>
      <point x="164" y="130"/>
      <point x="142" y="334"/>
      <point x="142" y="334" type="curve"/>
      <point x="246" y="359" type="line"/>
      <point x="246" y="359"/>
      <point x="270" y="243"/>
      <point x="388" y="243" type="curve" smooth="yes"/>
      <point x="506" y="243"/>
      <point x="530" y="359"/>
      <point x="530" y="359" type="curve"/>
      <point x="633" y="334" type="line"/>
      <point x="633" y="334"/>
      <point x="611" y="130"/>
    </contour>
    <contour>
      <point x="388" y="863" type="move" name="_top"/>
    </contour>
  </outline>
</glyph>
<glyph name="dotaccent" format="1">
  <advance width="573"/>
  <unicode hex="02D9"/>
  <outline>
    <component base="period" xOffset="34" yOffset="187"/>
    <contour>
      <point x="134" y="863" type="move" name="_top"/>
    </contour>
  </outline>
</glyph>
<glyph name="ring" format="1">
  <advance width="754"/>
  <unicode hex="02DA"/>
  <outline>
    <contour>
      <point x="376" y="147" type="curve" smooth="yes"/>
      <point x="256" y="147"/>
      <point x="146" y="226"/>
      <point x="146" y="367" type="curve" smooth="yes"/>
      <point x="146" y="509"/>
      <point x="256" y="591"/>
      <point x="377" y="591" type="curve" smooth="yes"/>
      <point x="490" y="591"/>
      <point x="608" y="509"/>
      <point x="608" y="367" type="curve" smooth="yes"/>
      <point x="608" y="227"/>
      <point x="497" y="147"/>
    </contour>
    <contour>
      <point x="376" y="233" type="curve" smooth="yes"/>
      <point x="464" y="233"/>
      <point x="508" y="299"/>
      <point x="508" y="366" type="curve" smooth="yes"/>
      <point x="508" y="434"/>
      <point x="462" y="502"/>
      <point x="376" y="502" type="curve" smooth="yes"/>
      <point x="290" y="502"/>
      <point x="244" y="434"/>
      <point x="244" y="367" type="curve" smooth="yes"/>
      <point x="244" y="294"/>
      <point x="288" y="233"/>
    </contour>
    <contour>
      <point x="377" y="863" type="move" name="_top"/>
    </contour>
  </outline>
</glyph>
<glyph name="ogonek" format="1">
  <advance width="451"/>
  <unicode hex="02DB"/>
  <outline>
    <contour>
      <point x="264" y="-402" type="curve"/>
      <point x="333" y="-344" type="line"/>
      <point x="270" y="-290"/>
      <point x="245" y="-238"/>
      <point x="245" y="-187" type="curve" smooth="yes"/>
      <point x="245" y="-125"/>
      <point x="283" y="-63"/>
      <point x="333" y="0" type="curve"/>
      <point x="274" y="0" type="line"/>
      <point x="170" y="-88"/>
      <point x="114" y="-171"/>
      <point x="114" y="-242" type="curve" smooth="yes"/>
      <point x="114" y="-311"/>
      <point x="167" y="-365"/>
    </contour>
    <contour>
      <point x="333" y="10" type="move" name="_ogonek"/>
    </contour>
  </outline>
</glyph>
<glyph name="tilde" format="1">
  <advance width="968"/>
  <unicode hex="02DC"/>
  <outline>
    <contour>
      <point x="636" y="169" type="curve" smooth="yes"/>
      <point x="776" y="169"/>
      <point x="821" y="243"/>
      <point x="824" y="416" type="curve"/>
      <point x="707" y="416" type="line"/>
      <point x="698" y="343"/>
      <point x="690" y="321"/>
      <point x="648" y="321" type="curve" smooth="yes"/>
      <point x="593" y="321"/>
      <point x="463" y="430"/>
      <point x="327" y="430" type="curve" smooth="yes"/>
      <point x="183" y="430"/>
      <point x="142" y="357"/>
      <point x="139" y="183" type="curve"/>
      <point x="257" y="183" type="line"/>
      <point x="265" y="256"/>
      <point x="281" y="278"/>
      <point x="324" y="278" type="curve" smooth="yes"/>
      <point x="404" y="278"/>
      <point x="492" y="169"/>
    </contour>
    <contour>
      <point x="481.5" y="863" type="move" name="_top"/>
    </contour>
  </outline>
</glyph>
<glyph name="hungarumlaut" format="1">
  <advance width="769"/>
  <unicode hex="02DD"/>
  <outline>
    <component base="acute" xOffset="45"/>
    <component base="acute" xOffset="317"/>
    <contour>
      <point x="428" y="863" type="move" name="_top"/>
    </contour>
  </outline>
</glyph>
<glyph name="uni0311" format="1">
  <advance width="776"/>
  <unicode hex="0311"/>
  <outline>
    <contour>
      <point x="246" y="130" type="curve"/>
      <point x="142" y="154" type="line"/>
      <point x="142" y="154"/>
      <point x="164" y="359"/>
      <point x="388" y="359" type="curve" smooth="yes"/>
      <point x="611" y="359"/>
      <point x="633" y="154"/>
      <point x="633" y="154" type="curve"/>
      <point x="530" y="130" type="line"/>
      <point x="530" y="130"/>
      <point x="506" y="246"/>
      <point x="388" y="246" type="curve" smooth="yes"/>
      <point x="270" y="246"/>
      <point x="246" y="130"/>
    </contour>
  </outline>
</glyph>
<glyph name="uni0326" format="1">
  <advance width="494"/>
  <unicode hex="0326"/>
  <outline>
    <contour>
      <point x="174" y="-499" type="curve" smooth="yes"/>
      <point x="210" y="-499"/>
      <point x="249" y="-476"/>
      <point x="272" y="-417" type="curve" smooth="yes"/>
      <point x="393" y="-107" type="line" smooth="yes"/>
      <point x="396" y="-100"/>
      <point x="397" y="-94"/>
      <point x="397" y="-88" type="curve" smooth="yes"/>
      <point x="397" y="-68"/>
      <point x="382" y="-56"/>
      <point x="365" y="-56" type="curve" smooth="yes"/>
      <point x="354" y="-56"/>
      <point x="341" y="-61"/>
      <point x="331" y="-74" type="curve" smooth="yes"/>
      <point x="121" y="-342" type="line"/>
      <point x="99" y="-368"/>
      <point x="90" y="-394"/>
      <point x="90" y="-417" type="curve" smooth="yes"/>
      <point x="90" y="-464"/>
      <point x="130" y="-499"/>
    </contour>
    <contour>
      <point x="243" y="0" type="move" name="_bottom"/>
    </contour>
  </outline>
</glyph>
<glyph name="mu" format="1">
  <advance width="1131"/>
  <unicode hex="03BC"/>
  <outline>
    <contour>
      <point x="125" y="-248" type="line"/>
      <point x="352" y="-248" type="line"/>
      <point x="352" y="242" type="line"/>
      <point x="125" y="299" type="line"/>
    </contour>
    <component base="u" xOffset="1"/>
  </outline>
</glyph>
<glyph name="dagger" format="1">
  <advance width="1013"/>
  <unicode hex="2020"/>
  <outline>
    <contour>
      <point x="435" y="0" type="line"/>
      <point x="577" y="0" type="line"/>
      <point x="577" y="726" type="line"/>
      <point x="864" y="726" type="line"/>
      <point x="864" y="867" type="line"/>
      <point x="576" y="867" type="line"/>
      <point x="576" y="1155" type="line"/>
      <point x="435" y="1155" type="line"/>
      <point x="435" y="867" type="line"/>
      <point x="148" y="867" type="line"/>
      <point x="148" y="726" type="line"/>
      <point x="435" y="726" type="line"/>
    </contour>
  </outline>
</glyph>
<glyph name="daggerdbl" format="1">
  <advance width="1019"/>
  <unicode hex="2021"/>
  <outline>
    <contour>
      <point x="439" y="0" type="line"/>
      <point x="580" y="0" type="line"/>
      <point x="580" y="272" type="line"/>
      <point x="867" y="272" type="line"/>
      <point x="867" y="413" type="line"/>
      <point x="580" y="413" type="line"/>
      <point x="580" y="726" type="line"/>
      <point x="867" y="726" type="line"/>
      <point x="867" y="867" type="line"/>
      <point x="579" y="867" type="line"/>
      <point x="579" y="1155" type="line"/>
      <point x="439" y="1155" type="line"/>
      <point x="439" y="867" type="line"/>
      <point x="151" y="867" type="line"/>
      <point x="151" y="726" type="line"/>
      <point x="439" y="726" type="line"/>
      <point x="439" y="413" type="line"/>
      <point x="151" y="413" type="line"/>
      <point x="151" y="272" type="line"/>
      <point x="439" y="272" type="line"/>
    </contour>
  </outline>
</glyph>
<glyph name="guilsinglleft" format="1">
  <advance width="557"/>
  <unicode hex="2039"/>
  <outline>
    <contour>
      <point x="456" y="171" type="curve" smooth="yes"/>
      <point x="477" y="171"/>
      <point x="491" y="186"/>
      <point x="491" y="203" type="curve" smooth="yes"/>
      <point x="491" y="214"/>
      <point x="485" y="226"/>
      <point x="473" y="238" type="curve"/>
      <point x="277" y="516" type="line"/>
      <point x="473" y="793" type="line"/>
      <point x="485" y="806"/>
      <point x="491" y="817"/>
      <point x="491" y="829" type="curve" smooth="yes"/>
      <point x="491" y="846"/>
      <point x="477" y="860"/>
      <point x="456" y="860" type="curve" smooth="yes"/>
      <point x="448" y="860"/>
      <point x="439" y="859"/>
      <point x="429" y="854" type="curve"/>
      <point x="138" y="625" type="line"/>
      <point x="93" y="596"/>
      <point x="69" y="556"/>
      <point x="69" y="516" type="curve" smooth="yes"/>
      <point x="69" y="476"/>
      <point x="92" y="436"/>
      <point x="138" y="407" type="curve"/>
      <point x="429" y="178" type="line"/>
      <point x="439" y="173"/>
      <point x="448" y="171"/>
    </contour>
  </outline>
</glyph>
<glyph name="guilsinglright" format="1">
  <advance width="564"/>
  <unicode hex="203A"/>
  <outline>
    <contour>
      <point x="96" y="171" type="curve" smooth="yes"/>
      <point x="104" y="171"/>
      <point x="113" y="172"/>
      <point x="123" y="177" type="curve"/>
      <point x="414" y="406" type="line"/>
      <point x="459" y="435"/>
      <point x="483" y="475"/>
      <point x="483" y="515" type="curve" smooth="yes"/>
      <point x="483" y="555"/>
      <point x="460" y="595"/>
      <point x="414" y="624" type="curve"/>
      <point x="123" y="853" type="line"/>
      <point x="113" y="858"/>
      <point x="104" y="860"/>
      <point x="96" y="860" type="curve" smooth="yes"/>
      <point x="75" y="860"/>
      <point x="61" y="845"/>
      <point x="61" y="828" type="curve" smooth="yes"/>
      <point x="61" y="817"/>
      <point x="67" y="805"/>
      <point x="79" y="793" type="curve"/>
      <point x="275" y="515" type="line"/>
      <point x="79" y="238" type="line"/>
      <point x="67" y="225"/>
      <point x="61" y="214"/>
      <point x="61" y="202" type="curve" smooth="yes"/>
      <point x="61" y="185"/>
      <point x="75" y="171"/>
    </contour>
  </outline>
</glyph>
<glyph name="Euro" format="1">
  <advance width="1314"/>
  <unicode hex="20AC"/>
  <outline>
    <contour>
      <point x="841" y="-33" type="curve" smooth="yes"/>
      <point x="1030" y="-33"/>
      <point x="1199" y="42"/>
      <point x="1242" y="64" type="curve"/>
      <point x="1242" y="289" type="line"/>
      <point x="1128" y="215"/>
      <point x="990" y="172"/>
      <point x="860" y="172" type="curve" smooth="yes"/>
      <point x="683" y="172"/>
      <point x="524" y="252"/>
      <point x="454" y="420" type="curve"/>
      <point x="827" y="420" type="line"/>
      <point x="827" y="549" type="line"/>
      <point x="419" y="549" type="line"/>
      <point x="415" y="575"/>
      <point x="414" y="602"/>
      <point x="414" y="630" type="curve" smooth="yes"/>
      <point x="414" y="642"/>
      <point x="414" y="653"/>
      <point x="414" y="664" type="curve"/>
      <point x="827" y="664" type="line"/>
      <point x="827" y="792" type="line"/>
      <point x="438" y="792" type="line"/>
      <point x="497" y="985"/>
      <point x="668" y="1069"/>
      <point x="855" y="1069" type="curve" smooth="yes"/>
      <point x="989" y="1069"/>
      <point x="1130" y="1025"/>
      <point x="1242" y="950" type="curve"/>
      <point x="1242" y="1172" type="line"/>
      <point x="1198" y="1198"/>
      <point x="1026" y="1275"/>
      <point x="833" y="1275" type="curve" smooth="yes"/>
      <point x="515" y="1275"/>
      <point x="253" y="1096"/>
      <point x="186" y="792" type="curve"/>
      <point x="69" y="792" type="line"/>
      <point x="69" y="664" type="line"/>
      <point x="169" y="664" type="line"/>
      <point x="168" y="653"/>
      <point x="168" y="641"/>
      <point x="168" y="630" type="curve" smooth="yes"/>
      <point x="168" y="602"/>
      <point x="170" y="575"/>
      <point x="173" y="549" type="curve"/>
      <point x="69" y="549" type="line"/>
      <point x="69" y="420" type="line"/>
      <point x="197" y="420" type="line"/>
      <point x="280" y="136"/>
      <point x="533" y="-33"/>
    </contour>
  </outline>
</glyph>
<glyph name="minus" format="1">
  <advance width="1023"/>
  <unicode hex="2212"/>
  <outline>
    <contour>
      <point x="153" y="507" type="line"/>
      <point x="869" y="507" type="line"/>
      <point x="869" y="649" type="line"/>
      <point x="153" y="649" type="line"/>
    </contour>
  </outline>
</glyph>
<glyph name="integral" format="1">
  <advance width="1005"/>
  <unicode hex="222B"/>
  <outline>
    <contour>
      <point x="268" y="-322" type="curve" smooth="yes"/>
      <point x="439" y="-322"/>
      <point x="549" y="-211"/>
      <point x="569" y="0" type="curve" smooth="yes"/>
      <point x="661" y="924" type="line" smooth="yes"/>
      <point x="672" y="1041"/>
      <point x="736" y="1077"/>
      <point x="813" y="1077" type="curve" smooth="yes"/>
      <point x="855" y="1077"/>
      <point x="887" y="1068"/>
      <point x="923" y="1055" type="curve"/>
      <point x="940" y="1213" type="line"/>
      <point x="921" y="1218"/>
      <point x="849" y="1247"/>
      <point x="767" y="1247" type="curve" smooth="yes"/>
      <point x="563" y="1247"/>
      <point x="456" y="1127"/>
      <point x="436" y="924" type="curve" smooth="yes"/>
      <point x="346" y="-13" type="line" smooth="yes"/>
      <point x="336" y="-124"/>
      <point x="283" y="-157"/>
      <point x="216" y="-157" type="curve" smooth="yes"/>
      <point x="159" y="-157"/>
      <point x="107" y="-132"/>
      <point x="82" y="-123" type="curve"/>
      <point x="67" y="-275" type="line"/>
      <point x="141" y="-307"/>
      <point x="204" y="-322"/>
    </contour>
  </outline>
</glyph>
<glyph name="approxequal" format="1">
  <advance width="998"/>
  <unicode hex="2248"/>
  <outline>
    <contour>
      <point x="712" y="279" type="curve" smooth="yes"/>
      <point x="856" y="279"/>
      <point x="905" y="358"/>
      <point x="907" y="532" type="curve"/>
      <point x="790" y="532" type="line"/>
      <point x="781" y="463"/>
      <point x="767" y="412"/>
      <point x="708" y="412" type="curve" smooth="yes"/>
      <point x="611" y="412"/>
      <point x="446" y="546"/>
      <point x="301" y="546" type="curve" smooth="yes"/>
      <point x="161" y="546"/>
      <point x="96" y="467"/>
      <point x="93" y="293" type="curve"/>
      <point x="211" y="293" type="line"/>
      <point x="219" y="370"/>
      <point x="238" y="414"/>
      <point x="307" y="414" type="curve" smooth="yes"/>
      <point x="407" y="414"/>
      <point x="578" y="279"/>
    </contour>
    <contour>
      <point x="712" y="604" type="curve" smooth="yes"/>
      <point x="856" y="604"/>
      <point x="905" y="682"/>
      <point x="907" y="856" type="curve"/>
      <point x="790" y="856" type="line"/>
      <point x="781" y="787"/>
      <point x="767" y="736"/>
      <point x="708" y="736" type="curve" smooth="yes"/>
      <point x="611" y="736"/>
      <point x="446" y="870"/>
      <point x="301" y="870" type="curve" smooth="yes"/>
      <point x="161" y="870"/>
      <point x="96" y="791"/>
      <point x="93" y="617" type="curve"/>
      <point x="211" y="617" type="line"/>
      <point x="219" y="694"/>
      <point x="238" y="739"/>
      <point x="307" y="739" type="curve" smooth="yes"/>
      <point x="407" y="739"/>
      <point x="578" y="604"/>
    </contour>
  </outline>
</glyph>
<glyph name="lessequal" format="1">
  <advance width="1049"/>
  <unicode hex="2264"/>
  <outline>
    <contour>
      <point x="138" y="0" type="line"/>
      <point x="942" y="0" type="line"/>
      <point x="942" y="137" type="line"/>
      <point x="138" y="137" type="line"/>
    </contour>
    <contour>
      <point x="942" y="218" type="line"/>
      <point x="942" y="422" type="line"/>
      <point x="499" y="600" type="line"/>
      <point x="942" y="787" type="line"/>
      <point x="942" y="978" type="line"/>
      <point x="111" y="598" type="line"/>
    </contour>
  </outline>
</glyph>
<glyph name="greaterequal" format="1">
  <advance width="1049"/>
  <unicode hex="2265"/>
  <outline>
    <contour>
      <point x="128" y="0" type="line"/>
      <point x="931" y="0" type="line"/>
      <point x="931" y="137" type="line"/>
      <point x="128" y="137" type="line"/>
    </contour>
    <contour>
      <point x="127" y="978" type="line"/>
      <point x="127" y="789" type="line"/>
      <point x="570" y="609" type="line"/>
      <point x="127" y="423" type="line"/>
      <point x="127" y="218" type="line"/>
      <point x="957" y="611" type="line"/>
    </contour>
  </outline>
</glyph>
<glyph name="lozenge" format="1">
  <advance width="962"/>
  <unicode hex="25CA"/>
  <outline>
    <contour>
      <point x="482" y="-26" type="line"/>
      <point x="838" y="631" type="line"/>
      <point x="478" y="1289" type="line"/>
      <point x="122" y="631" type="line"/>
    </contour>
    <contour>
      <point x="482" y="270" type="line"/>
      <point x="299" y="631" type="line"/>
      <point x="478" y="993" type="line"/>
      <point x="660" y="631" type="line"/>
    </contour>
  </outline>
</glyph>
<glyph name="uniFB00" format="1">
  <advance width="1294"/>
  <outline>
    <contour>
      <point x="213" y="0" type="line"/>
      <point x="436" y="0" type="line"/>
      <point x="436" y="682" type="line"/>
      <point x="826" y="682" type="line"/>
      <point x="826" y="0" type="line"/>
      <point x="1049" y="0" type="line"/>
      <point x="1049" y="682" type="line"/>
      <point x="1263" y="682" type="line"/>
      <point x="1263" y="857" type="line"/>
      <point x="1048" y="857" type="line"/>
      <point x="1048" y="924" type="line" smooth="yes"/>
      <point x="1048" y="1021"/>
      <point x="1102" y="1050"/>
      <point x="1167" y="1050" type="curve" smooth="yes"/>
      <point x="1227" y="1050"/>
      <point x="1281" y="1024"/>
      <point x="1298" y="1020" type="curve"/>
      <point x="1298" y="1212" type="line"/>
      <point x="1279" y="1217"/>
      <point x="1211" y="1247"/>
      <point x="1129" y="1247" type="curve" smooth="yes"/>
      <point x="925" y="1247"/>
      <point x="823" y="1127"/>
      <point x="823" y="924" type="curve" smooth="yes"/>
      <point x="823" y="857" type="line"/>
      <point x="435" y="857" type="line"/>
      <point x="435" y="924" type="line" smooth="yes"/>
      <point x="435" y="1021"/>
      <point x="489" y="1050"/>
      <point x="554" y="1050" type="curve" smooth="yes"/>
      <point x="615" y="1050"/>
      <point x="663" y="1024"/>
      <point x="680" y="1020" type="curve"/>
      <point x="680" y="1212" type="line"/>
      <point x="660" y="1217"/>
      <point x="598" y="1247"/>
      <point x="517" y="1247" type="curve" smooth="yes"/>
      <point x="312" y="1247"/>
      <point x="210" y="1127"/>
      <point x="210" y="924" type="curve" smooth="yes"/>
      <point x="210" y="857" type="line"/>
      <point x="75" y="857" type="line"/>
      <point x="75" y="682" type="line"/>
      <point x="213" y="682" type="line"/>
    </contour>
  </outline>
</glyph>
<glyph name="uniFB03" format="1">
  <advance width="1827"/>
  <outline>
    <contour>
      <point x="1561" y="1004" type="curve" smooth="yes"/>
      <point x="1649" y="1004"/>
      <point x="1700" y="1072"/>
      <point x="1700" y="1141" type="curve" smooth="yes"/>
      <point x="1700" y="1207"/>
      <point x="1650" y="1279"/>
      <point x="1561" y="1279" type="curve" smooth="yes"/>
      <point x="1471" y="1279"/>
      <point x="1420" y="1208"/>
      <point x="1420" y="1141" type="curve" smooth="yes"/>
      <point x="1420" y="1071"/>
      <point x="1472" y="1004"/>
    </contour>
    <contour>
      <point x="436" y="682" type="line"/>
      <point x="827" y="682" type="line"/>
      <point x="827" y="0" type="line"/>
      <point x="1050" y="0" type="line"/>
      <point x="1050" y="682" type="line"/>
      <point x="1451" y="682" type="line"/>
      <point x="1451" y="0" type="line"/>
      <point x="1672" y="0" type="line"/>
      <point x="1672" y="857" type="line"/>
      <point x="1049" y="857" type="line"/>
      <point x="1049" y="924" type="line" smooth="yes"/>
      <point x="1049" y="1021"/>
      <point x="1103" y="1050"/>
      <point x="1168" y="1050" type="curve" smooth="yes"/>
      <point x="1228" y="1050"/>
      <point x="1282" y="1024"/>
      <point x="1299" y="1020" type="curve"/>
      <point x="1299" y="1212" type="line"/>
      <point x="1280" y="1217"/>
      <point x="1212" y="1247"/>
      <point x="1130" y="1247" type="curve" smooth="yes"/>
      <point x="926" y="1247"/>
      <point x="824" y="1127"/>
      <point x="824" y="924" type="curve" smooth="yes"/>
      <point x="824" y="857" type="line"/>
      <point x="435" y="857" type="line"/>
      <point x="435" y="924" type="line" smooth="yes"/>
      <point x="435" y="1021"/>
      <point x="489" y="1050"/>
      <point x="554" y="1050" type="curve" smooth="yes"/>
      <point x="615" y="1050"/>
      <point x="663" y="1024"/>
      <point x="680" y="1020" type="curve"/>
      <point x="680" y="1212" type="line"/>
      <point x="660" y="1217"/>
      <point x="598" y="1247"/>
      <point x="517" y="1247" type="curve" smooth="yes"/>
      <point x="312" y="1247"/>
      <point x="210" y="1127"/>
      <point x="210" y="924" type="curve" smooth="yes"/>
      <point x="210" y="857" type="line"/>
      <point x="75" y="857" type="line"/>
      <point x="75" y="682" type="line"/>
      <point x="213" y="682" type="line"/>
      <point x="213" y="0" type="line"/>
      <point x="436" y="0" type="line"/>
    </contour>
  </outline>
</glyph>
